<svg width="22" height="17" viewBox="0 0 22 17" fill="none" xmlns="http://www.w3.org/2000/svg">
<g filter="url(#filter0_d_3607_16725)">
<path d="M19.293 6.00058C19.293 3.07056 16.8781 0.695312 13.8992 0.695312H7.79057C7.62141 0.695312 7.45956 0.763106 7.34233 0.883059L2.96844 5.35864C2.61802 5.7172 2.61802 6.28395 2.96844 6.64251L7.34233 11.1181C7.45956 11.238 7.62141 11.3058 7.79057 11.3058L13.8992 11.3058C16.8781 11.3058 19.293 8.93059 19.293 6.00058Z" fill="white"/>
</g>
<path fill-rule="evenodd" clip-rule="evenodd" d="M20 6C20 2.68629 17.2689 0 13.8999 0H7.79128C7.42994 0 7.08421 0.14481 6.83381 0.401033L2.45992 4.87661C1.84669 5.5041 1.84669 6.4959 2.45992 7.12338L6.83381 11.599C7.08421 11.8552 7.42994 12 7.79128 12L13.8999 12C17.2689 12 20 9.31371 20 6ZM13.8999 1.38947C16.4887 1.38947 18.5873 3.45368 18.5873 6C18.5873 8.54632 16.4887 10.6105 13.8999 10.6105H7.82729L3.47836 6.16048C3.39076 6.07084 3.39076 5.92916 3.47836 5.83952L7.82729 1.38947H13.8999Z" fill="#4F4F4F"/>
<path fill-rule="evenodd" clip-rule="evenodd" d="M8.43461 2.98083C8.15877 3.25214 8.15877 3.69202 8.43461 3.96333L14.0852 9.52123C14.3611 9.79254 14.8083 9.79254 15.0841 9.52123C15.36 9.24992 15.36 8.81003 15.0841 8.53872L9.43351 2.98083C9.15767 2.70952 8.71045 2.70952 8.43461 2.98083Z" fill="#EE2348"/>
<defs>
<filter id="filter0_d_3607_16725" x="0.705078" y="0.695312" width="20.5879" height="15.6094" filterUnits="userSpaceOnUse" color-interpolation-filters="sRGB">
<feFlood flood-opacity="0" result="BackgroundImageFix"/>
<feColorMatrix in="SourceAlpha" type="matrix" values="0 0 0 0 0 0 0 0 0 0 0 0 0 0 0 0 0 0 127 0" result="hardAlpha"/>
<feOffset dy="3"/>
<feGaussianBlur stdDeviation="1"/>
<feComposite in2="hardAlpha" operator="out"/>
<feColorMatrix type="matrix" values="0 0 0 0 0 0 0 0 0 0 0 0 0 0 0 0 0 0 0.1 0"/>
<feBlend mode="normal" in2="BackgroundImageFix" result="effect1_dropShadow_3607_16725"/>
<feBlend mode="normal" in="SourceGraphic" in2="effect1_dropShadow_3607_16725" result="shape"/>
</filter>
</defs>
</svg>