<svg width="22" height="17" viewBox="0 0 22 17" fill="none" xmlns="http://www.w3.org/2000/svg">
<g filter="url(#filter0_d_3607_16725)">
<path d="M19.293 5.99942C19.293 8.92944 16.8781 11.3047 13.8992 11.3047L7.79057 11.3047C7.62141 11.3047 7.45956 11.2369 7.34233 11.1169L2.96844 6.64136C2.61802 6.2828 2.61802 5.71605 2.96844 5.35749L7.34233 0.881908C7.45956 0.761955 7.62141 0.694161 7.79057 0.694161L13.8992 0.694162C16.8781 0.694162 19.293 3.06941 19.293 5.99942Z" fill="white"/>
</g>
<path fill-rule="evenodd" clip-rule="evenodd" d="M20 6C20 9.31371 17.2689 12 13.8999 12L7.79128 12C7.42994 12 7.08421 11.8552 6.83381 11.599L2.45992 7.12338C1.84669 6.4959 1.84669 5.5041 2.45992 4.87661L6.83381 0.401032C7.08421 0.144809 7.42995 -1.40449e-06 7.79128 -1.3729e-06L13.8999 4.45349e-08C17.2689 3.39062e-07 20 2.68629 20 6ZM13.8999 10.6105C16.4887 10.6105 18.5873 8.54632 18.5873 6C18.5873 3.45368 16.4887 1.38947 13.8999 1.38947L7.82729 1.38947L3.47836 5.83952C3.39076 5.92916 3.39076 6.07084 3.47836 6.16048L7.82729 10.6105L13.8999 10.6105Z" fill="current"/>
<path fill-rule="evenodd" clip-rule="evenodd" d="M15.0849 2.47692C15.3608 2.74823 15.3608 3.18812 15.0849 3.45943L9.43429 9.01732C9.15846 9.28863 8.71123 9.28863 8.43539 9.01732C8.15956 8.74601 8.15956 8.30613 8.43539 8.03482L14.086 2.47692C14.3619 2.20561 14.8091 2.20561 15.0849 2.47692Z" fill="#EE2348"/>
<defs>
<filter id="filter0_d_3607_16725" x="0.705078" y="0.695312" width="20.5879" height="15.6094" filterUnits="userSpaceOnUse" color-interpolation-filters="sRGB">
<feFlood flood-opacity="0" result="BackgroundImageFix"/>
<feColorMatrix in="SourceAlpha" type="matrix" values="0 0 0 0 0 0 0 0 0 0 0 0 0 0 0 0 0 0 127 0" result="hardAlpha"/>
<feOffset dy="3"/>
<feGaussianBlur stdDeviation="1"/>
<feComposite in2="hardAlpha" operator="out"/>
<feColorMatrix type="matrix" values="0 0 0 0 0 0 0 0 0 0 0 0 0 0 0 0 0 0 0.1 0"/>
<feBlend mode="normal" in2="BackgroundImageFix" result="effect1_dropShadow_3607_16725"/>
<feBlend mode="normal" in="SourceGraphic" in2="effect1_dropShadow_3607_16725" result="shape"/>
</filter>
</defs>
</svg>