<svg width="31" height="12" viewBox="0 0 31 12" fill="none" xmlns="http://www.w3.org/2000/svg">
<path fill-rule="evenodd" clip-rule="evenodd" d="M22.5659 2.17221L22.566 4.91639C22.5659 4.99774 22.6065 5.07288 22.6765 5.11344L25.0403 6.48334C25.1406 6.54145 25.2684 6.46866 25.2685 6.3522V3.60809C25.2686 3.52674 25.2255 3.4516 25.1554 3.41096L22.7917 2.04114C22.6913 1.98303 22.5661 2.05582 22.5659 2.17221ZM29.8465 0.0293926L26.4435 2.00164C26.3427 2.06006 26.2805 2.1682 26.2807 2.28526V6.23604C26.2808 6.40373 26.4649 6.50846 26.6092 6.42477L30.0124 4.45267C30.1132 4.39417 30.1715 4.28604 30.1714 4.16897L30.1714 0.218195C30.1713 0.0505052 29.991 -0.0542254 29.8465 0.0293926ZM25.1782 8.43213L24.2325 8.9803C24.2045 8.99657 24.1872 9.02661 24.1872 9.05915L24.1872 10.157C24.1872 10.2037 24.2385 10.2327 24.2786 10.2095L25.2243 9.66142C25.2523 9.64523 25.2686 9.61511 25.2685 9.58265V8.48464C25.2685 8.4381 25.2183 8.40897 25.1782 8.43213ZM24.6271 7.4191L23.2108 6.59465C23.1688 6.57028 23.117 6.57028 23.075 6.59465L21.6587 7.4191C21.5986 7.45406 21.5986 7.54131 21.6587 7.57635L23.075 8.40065C23.117 8.42516 23.1688 8.42516 23.2108 8.40065L24.6271 7.57635C24.6872 7.54131 24.6872 7.45406 24.6271 7.4191ZM26.9072 7.56772L27.5365 7.93397C27.5738 7.95569 27.6197 7.95569 27.657 7.93397L28.2863 7.56772C28.3397 7.53654 28.3397 7.45898 28.2863 7.42788L27.657 7.06162C27.6197 7.03991 27.5738 7.03991 27.5365 7.06162L26.9072 7.42788C26.8538 7.45898 26.8538 7.53654 26.9072 7.56772ZM26.401 8.44923L27.031 8.81427C27.0683 8.83591 27.0913 8.87602 27.0913 8.91938L27.0905 9.65068C27.0905 9.71273 27.0237 9.75155 26.9702 9.7206L26.3402 9.35556C26.3029 9.33391 26.2807 9.29366 26.2807 9.25045L26.2807 8.51915C26.2807 8.45717 26.3475 8.4182 26.401 8.44923ZM19.9936 7.72663C19.9686 7.66367 19.9154 7.64074 19.856 7.67631C19.7965 7.71188 18.6796 8.38135 18.6796 8.38135V7.76439C18.6796 7.69515 18.6357 7.66995 18.5732 7.69515L18.2103 7.82735C18.1603 7.84619 18.1414 7.88396 18.1414 7.93435V10.6467C18.1414 10.7034 18.179 10.741 18.2353 10.741H18.5857C18.642 10.741 18.6796 10.7034 18.6796 10.6467V8.98537C18.6796 8.98537 19.9966 8.16765 20.05 8.13557C20.1033 8.1034 20.1306 8.07616 20.1062 8.01593C20.0796 7.94987 19.9936 7.72663 19.9936 7.72663ZM0.594424 8.87155C0.713279 8.43727 1.05126 8.17287 1.52683 8.17287C2.04618 8.17287 2.32143 8.48131 2.34648 8.87155H0.594424ZM2.916 9.03523C2.916 8.27987 2.40282 7.64407 1.54556 7.64407C0.700792 7.64407 0 8.25475 0 9.24924C0 10.1557 0.588181 10.8166 1.57686 10.8166C2.02738 10.8166 2.47797 10.6592 2.81588 10.3571C2.85966 10.3193 2.85966 10.269 2.82837 10.2249L2.65941 9.96055C2.62812 9.91023 2.57809 9.90395 2.52807 9.94171C2.22138 10.1683 1.90852 10.2816 1.57686 10.2816C0.944895 10.2816 0.600668 9.86612 0.556887 9.34367H2.8234C2.8814 9.34367 2.916 9.30145 2.916 9.25052V9.03523ZM4.88989 10.2816C4.35806 10.2816 3.90122 9.91651 3.90122 9.22404C3.90122 8.53164 4.35806 8.17287 4.88989 8.17287C5.44678 8.17287 5.87857 8.53164 5.87857 9.22404C5.87857 9.9228 5.44678 10.2816 4.88989 10.2816ZM5.96621 12H6.3166C6.37287 12 6.41041 11.9622 6.41041 11.9056V7.76371C6.41041 7.69447 6.36663 7.66927 6.2978 7.69447L5.94116 7.82675C5.89113 7.84559 5.87225 7.88335 5.87225 7.93375V8.06587C5.67832 7.80155 5.29656 7.64407 4.88365 7.64407C4.06385 7.64407 3.35058 8.26103 3.35058 9.23032C3.35058 10.0865 3.90122 10.8166 4.85236 10.8166C5.28407 10.8166 5.69705 10.6215 5.87225 10.4012V11.9056C5.87225 11.9622 5.90986 12 5.96621 12ZM8.19293 10.8166C8.51828 10.8166 8.87506 10.7096 9.10653 10.3697V10.6467C9.10653 10.7033 9.14407 10.741 9.20041 10.741H9.55081C9.60715 10.741 9.64461 10.7033 9.64461 10.6467V7.76999C9.64461 7.69447 9.60083 7.66927 9.53824 7.69447L9.17536 7.82675C9.12534 7.84559 9.10653 7.88335 9.10653 7.93375V9.44439C9.10653 9.97947 8.76238 10.2816 8.29305 10.2816C7.83005 10.2816 7.51719 9.98575 7.51719 9.44439V7.76371C7.51719 7.69447 7.47333 7.66927 7.41082 7.69447L7.04794 7.82675C6.99776 7.84559 6.97896 7.88335 6.97896 7.93375V9.46324C6.97896 10.3571 7.51719 10.8166 8.19293 10.8166ZM10.3767 7.37347L10.7585 7.24755C10.821 7.22863 10.846 7.19715 10.846 7.13427V6.67479C10.846 6.61811 10.8022 6.57407 10.7334 6.59927L10.3579 6.73775C10.3016 6.75659 10.2703 6.78179 10.2703 6.84467V7.28531C10.2703 7.35455 10.3079 7.39859 10.3767 7.37347ZM10.3829 10.741H10.7334C10.7897 10.741 10.8273 10.7033 10.8273 10.6467V7.76371C10.8273 7.69447 10.7834 7.66927 10.7209 7.69447L10.3579 7.82675C10.3079 7.84559 10.2891 7.88335 10.2891 7.93375V10.6467C10.2891 10.7033 10.3266 10.741 10.3829 10.741ZM11.5655 10.741H11.9159C11.9722 10.741 12.0097 10.7033 12.0097 10.6467V9.01632C12.0097 8.48131 12.354 8.17915 12.8232 8.17915C13.2862 8.17915 13.5991 8.47503 13.5991 9.01632V10.6467C13.5991 10.7033 13.6366 10.741 13.693 10.741H14.0434C14.0997 10.741 14.1373 10.7033 14.1373 10.6467V8.99747C14.1373 8.10363 13.5991 7.64407 12.9233 7.64407C12.598 7.64407 12.2414 7.75107 12.0097 8.09107V7.76371C12.0097 7.69447 11.966 7.66927 11.9034 7.69447L11.5404 7.82675C11.4904 7.84559 11.4717 7.88335 11.4717 7.93375V10.6467C11.4717 10.7033 11.5091 10.741 11.5655 10.741ZM16.1425 10.2878C15.523 10.2878 15.1476 9.82207 15.1476 9.23032C15.1476 8.63864 15.523 8.17287 16.1425 8.17287C16.7557 8.17287 17.1311 8.63864 17.1311 9.23032C17.1311 9.82207 16.7557 10.2878 16.1425 10.2878ZM16.1425 7.64407C15.2414 7.64407 14.5969 8.31763 14.5969 9.23032C14.5969 10.1431 15.2414 10.8166 16.1425 10.8166C17.0435 10.8166 17.6818 10.1431 17.6818 9.23032C17.6818 8.31763 17.0435 7.64407 16.1425 7.64407Z" fill="white"/>
</svg>
