<svg width="18" height="18" viewBox="0 0 18 18" fill="none" xmlns="http://www.w3.org/2000/svg">
<rect width="18" height="18" rx="2" fill="current"/>
<path fill-rule="evenodd" clip-rule="evenodd" d="M8.29819 9.73269V16.6072C8.29819 16.8241 8.47407 17 8.69104 17C8.80628 17 8.91572 16.9494 8.99036 16.8616L12.1283 13.1699L8.99036 9.47826C8.91572 9.39045 8.80628 9.33984 8.69104 9.33984C8.47407 9.33984 8.29819 9.51573 8.29819 9.73269ZM8.29805 12.4012H6V13.9332H8.29805V12.4012Z" fill="white"/>
<path fill-rule="evenodd" clip-rule="evenodd" d="M9.83117 5.59465V8.26938C9.83117 8.4864 9.65523 8.66233 9.43821 8.66233C9.32293 8.66233 9.21346 8.61171 9.1388 8.52387L6 4.83117L9.1388 1.13846C9.21346 1.05062 9.32293 1 9.43821 1C9.65523 1 9.83117 1.17593 9.83117 1.39296V4.06218H12.1277V5.59465H9.83117Z" fill="white"/>
</svg>
