<svg width="10" height="25" viewBox="0 0 10 25" fill="none" xmlns="http://www.w3.org/2000/svg">
<rect width="10" height="25" fill="white"/>
<path d="M4 22.4872V13.5128C4 13.2296 4.22961 13 4.51284 13C4.66329 13 4.80616 13.0661 4.9036 13.1807L9 18L4.9036 22.8193C4.80616 22.9339 4.66329 23 4.51284 23C4.22961 23 4 22.7704 4 22.4872Z" fill="current"/>
<path d="M6 11.4872V2.51284C6 2.22961 5.77039 2 5.48716 2C5.33671 2 5.19384 2.06607 5.0964 2.1807L1 7L5.0964 11.8193C5.19384 11.9339 5.33671 12 5.48716 12C5.77039 12 6 11.7704 6 11.4872Z" fill="current"/>
<rect x="1" y="17" width="3" height="2" fill="black"/>
<rect x="6" y="6" width="3" height="2" fill="black"/>
</svg>
