<svg width="10" height="25" viewBox="0 0 10 25" fill="none" xmlns="http://www.w3.org/2000/svg">
<rect width="10" height="25" fill="white"/>
<path d="M0.769231 7.20296C-0.25641 6.66831 -0.256411 5.33169 0.769229 4.79704L7.69231 1.18817C8.71795 0.653522 10 1.32183 10 2.39113L10 9.60887C10 10.6782 8.71795 11.3465 7.69231 10.8118L0.769231 7.20296Z" fill="current"/>
<path d="M9.23077 19.8233C10.2564 19.2351 10.2564 17.7649 9.23077 17.1767L2.30769 13.207C1.28205 12.6189 -4.88324e-07 13.354 -5.39738e-07 14.5302L-8.86785e-07 22.4698C-9.382e-07 23.646 1.28205 24.3811 2.30769 23.793L9.23077 19.8233Z" fill="current"/>
</svg>
