<svg width="88" height="22" viewBox="0 0 88 22" fill="none" xmlns="http://www.w3.org/2000/svg">
<path d="M5.87487 18.6278H15.3817C17.2773 18.6278 18.5869 17.6366 18.5869 16.4572V14.9379C18.5869 13.9105 18.0877 13.5704 16.9373 13.6934C11.8727 14.2867 3.29195 14.3446 3.29195 16.8624C3.29195 17.7957 4.07334 18.635 5.87487 18.635V18.6278ZM5.78805 12.3188L16.7564 11.1395C18.3481 10.9803 18.5001 10.5462 18.5001 9.64181C18.5001 9.17877 17.9068 7.97051 15.4541 7.97051H8.21903V5.1416H15.4541C19.5202 5.1416 21.915 7.25424 21.915 10.3002V16.327C21.915 19.7781 18.775 21.3337 15.4034 21.3337H5.87487C2.45269 21.3337 0 19.1632 0 16.8841C0 14.8366 2.27181 12.6878 5.78805 12.3188Z" fill="#004676"/>
<path d="M24.6002 21.1676V5.14918H28.0513V21.1676H24.6002ZM26.3728 3.63705C26.1233 3.64574 25.8744 3.60504 25.6407 3.51728C25.4069 3.42952 25.1927 3.29643 25.0105 3.12567C24.8284 2.95491 24.6817 2.74983 24.579 2.52221C24.4763 2.2946 24.4196 2.04894 24.4121 1.79934C24.4543 1.30841 24.6792 0.851177 25.0422 0.518013C25.4053 0.18485 25.8801 0 26.3728 0C26.8656 0 27.3404 0.18485 27.7034 0.518013C28.0665 0.851177 28.2913 1.30841 28.3335 1.79934C28.326 2.04894 28.2693 2.2946 28.1666 2.52221C28.0639 2.74983 27.9173 2.95491 27.7351 3.12567C27.5529 3.29643 27.3387 3.42952 27.105 3.51728C26.8712 3.60504 26.6224 3.64574 26.3728 3.63705Z" fill="#004676"/>
<path d="M50.0513 9.84471C50.0513 8.91862 48.8647 7.89124 46.9692 7.89124H37.4623C35.5667 7.89124 34.3801 8.91862 34.3801 9.84471V16.6095C34.3801 17.5066 35.5305 18.44 37.4623 18.44H46.9692C48.9009 18.44 50.0513 17.5066 50.0513 16.6095V9.84471ZM46.9692 21.3485H37.4623C32.5207 21.3485 30.9941 18.2084 30.9941 16.624V0.214844H34.3801V3.10887C34.3801 4.00602 35.5305 5.12745 37.3393 5.12745H46.9692C50.4854 5.12745 53.4373 6.95792 53.4373 9.81577V16.6095C53.4373 18.194 51.9107 21.334 46.9692 21.334V21.3485Z" fill="#004676"/>
<path d="M71.6846 7.85533H62.1705C60.2749 7.85533 58.9726 8.84653 58.9726 10.0258V11.5452C58.9726 12.5726 59.4718 12.9126 60.6222 12.7896C65.6868 12.1964 74.2603 12.1385 74.2603 9.62068C74.2603 8.68736 73.4862 7.84809 71.6846 7.84809V7.85533ZM71.7787 14.1643L60.7741 15.3436C59.1897 15.5028 59.0377 15.9369 59.0377 16.834C59.0377 17.3043 59.6238 18.5126 62.0837 18.5126H69.5792V21.3415H62.1416C58.0682 21.3415 55.6807 19.2288 55.6807 16.1829V10.1561C55.6807 6.70495 58.8134 5.14941 62.1922 5.14941H71.6846C75.0996 5.14941 77.5595 7.31993 77.5595 9.59174C77.5595 11.6465 75.2877 13.7881 71.7714 14.1643H71.7787Z" fill="#004676"/>
<path d="M79.498 21.3412V0.214844H82.8841V21.3412H79.498Z" fill="#004676"/>
<path d="M86.242 0.389012C85.9879 0.389463 85.7384 0.456838 85.5185 0.584359C85.2837 0.70432 85.0917 0.893822 84.9687 1.12699C84.8386 1.34611 84.7687 1.5957 84.7661 1.85049C84.7665 2.10463 84.8339 2.35417 84.9614 2.574C85.0888 2.80397 85.2797 2.99236 85.5113 3.11663C85.7311 3.24415 85.9807 3.31153 86.2348 3.31198C86.4886 3.30923 86.7376 3.24201 86.9583 3.11663C87.1863 2.98998 87.3743 2.802 87.5009 2.574C87.6285 2.35417 87.6958 2.10463 87.6963 1.85049C87.6936 1.5957 87.6238 1.34611 87.4937 1.12699C87.3706 0.893822 87.1786 0.70432 86.9438 0.584359C86.724 0.456838 86.4745 0.389463 86.2203 0.389012H86.242ZM86.242 0.0996094C86.5434 0.100278 86.8396 0.177452 87.103 0.323896C87.3864 0.470932 87.6185 0.700513 87.7686 0.982287C87.9191 1.25225 87.9987 1.55591 88.0002 1.86496C88.0014 2.17208 87.9216 2.47407 87.7686 2.74041C87.6199 3.01828 87.3937 3.247 87.1175 3.3988C86.8493 3.55033 86.5465 3.62995 86.2384 3.62995C85.9304 3.62995 85.6276 3.55033 85.3594 3.3988C85.0849 3.24473 84.8592 3.01658 84.7082 2.74041C84.5539 2.47314 84.4727 2.16996 84.4727 1.86135C84.4727 1.55273 84.5539 1.24955 84.7082 0.982287C84.8576 0.699958 85.0899 0.47018 85.3738 0.323896C85.6398 0.177445 85.9384 0.100313 86.242 0.0996094Z" fill="#004676"/>
<path d="M85.8365 1.74912H86.2055C86.3337 1.76097 86.4625 1.73319 86.5745 1.66954C86.6287 1.62794 86.6644 1.5667 86.6738 1.49903C86.6833 1.43136 86.6658 1.36267 86.6251 1.30779C86.5956 1.25918 86.5493 1.22312 86.4949 1.20649C86.3938 1.17765 86.2888 1.16544 86.1838 1.17032H85.8365V1.74912ZM85.5254 2.81268V0.917092H86.1838C86.347 0.908756 86.5105 0.925841 86.6685 0.967738C86.766 0.999912 86.8499 1.06353 86.9073 1.14861C86.964 1.23177 86.9943 1.33012 86.9941 1.43078C86.9945 1.56554 86.9426 1.69521 86.8494 1.79253C86.7423 1.89687 86.6008 1.9586 86.4515 1.96618C86.5113 1.98786 86.5657 2.02244 86.6106 2.06747C86.7193 2.18123 86.814 2.30753 86.8928 2.44369L87.1243 2.81268H86.7481L86.5817 2.51604C86.5045 2.35012 86.3964 2.20036 86.2634 2.0747C86.1917 2.02452 86.1045 2.00144 86.0174 2.00959H85.8365V2.81268H85.5254Z" fill="#004676"/>
</svg>
