<svg width="18" height="19" viewBox="0 0 18 19" fill="none" xmlns="http://www.w3.org/2000/svg">
<path d="M8.91997 9.61324C8.77093 8.28509 9.02861 6.94298 9.65894 5.76447C10.2893 4.58596 11.2625 3.62658 12.45 3.01324C11.6516 2.80068 10.82 2.74297 9.99997 2.84324C9.03842 2.95299 8.11277 3.27287 7.2886 3.78021C6.46444 4.28754 5.76194 4.96992 5.23087 5.779C4.69981 6.58807 4.35317 7.50404 4.21553 8.462C4.07789 9.41996 4.1526 10.3965 4.43439 11.3223C4.71618 12.2482 5.19813 13.1008 5.84611 13.8196C6.49409 14.5385 7.29223 15.106 8.18399 15.4821C9.07574 15.8581 10.0393 16.0334 11.0063 15.9956C11.9734 15.9578 12.9203 15.7078 13.78 15.2632C12.495 14.9207 11.3434 14.198 10.4762 13.1899C9.60896 12.1817 9.06653 10.935 8.91997 9.61324Z" fill="#272838"/>
<path d="M8.91997 9.61324C8.77093 8.28509 9.02861 6.94298 9.65894 5.76447C10.2893 4.58596 11.2625 3.62658 12.45 3.01324C11.6516 2.80068 10.82 2.74297 9.99997 2.84324C9.03842 2.95299 8.11277 3.27287 7.2886 3.78021C6.46444 4.28754 5.76194 4.96992 5.23087 5.779C4.69981 6.58807 4.35317 7.50404 4.21553 8.462C4.07789 9.41996 4.1526 10.3965 4.43439 11.3223C4.71618 12.2482 5.19813 13.1008 5.84611 13.8196C6.49409 14.5385 7.29223 15.106 8.18399 15.4821C9.07574 15.8581 10.0393 16.0334 11.0063 15.9956C11.9734 15.9578 12.9203 15.7078 13.78 15.2632C12.495 14.9207 11.3434 14.198 10.4762 13.1899C9.60896 12.1817 9.06653 10.935 8.91997 9.61324Z" stroke="#272838" stroke-width="0.5" stroke-miterlimit="10"/>
</svg>
