<svg width="12" height="14" viewBox="0 0 12 14" fill="none" xmlns="http://www.w3.org/2000/svg">
<path fill-rule="evenodd" clip-rule="evenodd" d="M1.89424 1.76224L6 7.1534L10.1058 1.76224H1.89424ZM0.315282 2.41712C-0.411581 1.46269 0.199003 0 1.32428 0H10.6757C11.801 0 12.4116 1.4627 11.6847 2.41712L7.009 8.55668C6.48103 9.24994 5.51897 9.24994 4.991 8.55668L0.315282 2.41712Z" fill="white"/>
<path fill-rule="evenodd" clip-rule="evenodd" d="M6 7.63636C6.43798 7.63636 6.79304 8.03085 6.79304 8.51748V13.1189C6.79304 13.6055 6.43798 14 6 14C5.56201 14 5.20695 13.6055 5.20695 13.1189V8.51748C5.20695 8.03085 5.56201 7.63636 6 7.63636Z" fill="white"/>
</svg>
