<svg width="14" height="10" viewBox="0 0 14 10" fill="none" xmlns="http://www.w3.org/2000/svg">
<path fill-rule="evenodd" clip-rule="evenodd" d="M0.0585934 1.25C0.0585934 0.559645 0.479969 9.30651e-07 0.999763 9.0225e-07L7.08181 -1.33742e-06C7.6016 -4.12144e-07 8.02298 0.559642 8.02298 1.25L8.02298 4.0625L11.5086 4.0625L9.79909 1.93394C9.51469 1.57982 9.50028 0.986531 9.76691 0.608802C10.0335 0.231074 10.4802 0.211939 10.7647 0.566063L13.7693 4.30731C13.9108 4.47875 13.9996 4.72561 13.9996 5C13.9996 5.27429 13.9109 5.52106 13.7695 5.6925L10.7647 9.43394C10.4802 9.78806 10.0335 9.76893 9.76691 9.3912C9.50028 9.01347 9.51469 8.42019 9.79909 8.06606L11.5086 5.9375L8.02318 5.9375L8.02298 8.75C8.02298 9.44036 7.60161 10 7.08181 10L0.999764 10C0.479971 10 0.0585937 9.44036 0.0585937 8.75L0.0585934 1.25ZM1.47035 8.125L1.47035 1.875L6.61123 1.875L6.61123 8.125L1.47035 8.125Z" fill="#4F4F4F"/>
</svg>
