<svg width="18" height="19" viewBox="0 0 18 19" fill="none" xmlns="http://www.w3.org/2000/svg">
<path d="M3.5 13.3232H14.5" stroke="#272838" stroke-width="0.75" stroke-miterlimit="10"/>
<path d="M8.52993 5.12354H9.42993C10.3795 5.13145 11.2875 5.51422 11.9561 6.1885C12.6248 6.86277 13 7.77393 12.9999 8.72354V13.2235H4.92993V8.72354C4.92993 7.76876 5.30922 6.85308 5.98435 6.17795C6.65948 5.50282 7.57515 5.12354 8.52993 5.12354Z" stroke="#272838" stroke-width="0.75" stroke-miterlimit="10"/>
<path d="M9.11 15.1734H8.9C8.67457 15.1734 8.45836 15.0838 8.29896 14.9244C8.13955 14.765 8.05 14.5488 8.05 14.3234V13.2634H10V14.3334C9.99878 14.4476 9.97455 14.5604 9.92876 14.6651C9.88297 14.7697 9.81655 14.8641 9.73347 14.9425C9.6504 15.0209 9.55237 15.0817 9.44525 15.1214C9.33813 15.1611 9.22411 15.1788 9.11 15.1734Z" stroke="#272838" stroke-width="0.75" stroke-miterlimit="10"/>
<path d="M8.9999 4.82354C9.33127 4.82354 9.5999 4.55491 9.5999 4.22354C9.5999 3.89216 9.33127 3.62354 8.9999 3.62354C8.66853 3.62354 8.3999 3.89216 8.3999 4.22354C8.3999 4.55491 8.66853 4.82354 8.9999 4.82354Z" stroke="#272838" stroke-width="0.5" stroke-miterlimit="10"/>
</svg>
