<svg width="15" height="16" viewBox="0 0 15 16" fill="none" xmlns="http://www.w3.org/2000/svg">
<path d="M7.61837 14.473L7.72701 14.0648L5.80527 13.5464L5.69664 13.9545C5.56728 14.4406 5.39789 14.9979 5.70607 15.394C5.82176 15.5428 5.99563 15.6718 6.25112 15.7407C6.50662 15.8097 6.72128 15.7854 6.89533 15.7149C7.35893 15.527 7.48901 14.9591 7.61837 14.473Z" fill="#272738"/>
<path d="M1 12L12.5324 15.1111" stroke="#272738" stroke-width="1.5" stroke-linecap="round"/>
<path fill-rule="evenodd" clip-rule="evenodd" d="M8.91245 2.51188C7.82827 2.37122 6.74782 2.52665 5.80317 2.95924C4.6196 3.50125 3.57 4.52882 3.1779 6.00212L1.38288 12.7468L11.9543 15.5987L13.7493 8.854C14.1414 7.38071 13.7427 5.96243 12.9869 4.89722C12.3836 4.04696 11.525 3.3684 10.5161 2.94445C10.2688 3.18056 9.92436 3.28732 9.58947 3.19698C9.2546 3.10664 9.00931 2.8408 8.91245 2.51188ZM9.31143 4.24237C11.4345 4.81511 12.776 6.7057 12.3077 8.46511L10.93 13.6419L3.24173 11.5678L4.61945 6.39101C5.0877 4.6316 7.18837 3.66962 9.31143 4.24237Z" fill="#272738"/>
<ellipse rx="0.995393" ry="1.00126" transform="matrix(0.965596 0.260047 -0.257596 0.966253 10.1136 1.22632)" fill="#272738"/>
</svg>
