<svg width="16" height="18" viewBox="0 0 16 18" fill="none" xmlns="http://www.w3.org/2000/svg">
<path d="M1 15H15" stroke="#272838" stroke-width="1.5" stroke-miterlimit="10" stroke-linecap="round"/>
<path d="M6 17C7.10457 17 8 16.1046 8 15C8 13.8954 7.10457 13 6 13C4.89543 13 4 13.8954 4 15C4 16.1046 4.89543 17 6 17Z" fill="white" stroke="#272838" stroke-miterlimit="10"/>
<path d="M1 9H15" stroke="#272838" stroke-width="1.5" stroke-miterlimit="10" stroke-linecap="round"/>
<path d="M12 11C13.1046 11 14 10.1046 14 9C14 7.89543 13.1046 7 12 7C10.8954 7 10 7.89543 10 9C10 10.1046 10.8954 11 12 11Z" fill="white" stroke="#272838" stroke-miterlimit="10"/>
<path d="M1 3H15" stroke="#272838" stroke-width="1.5" stroke-miterlimit="10" stroke-linecap="round"/>
<path d="M4 5C5.10457 5 6 4.10457 6 3C6 1.89543 5.10457 1 4 1C2.89543 1 2 1.89543 2 3C2 4.10457 2.89543 5 4 5Z" fill="white" stroke="#272838" stroke-miterlimit="10"/>
</svg>
