<svg width="19" height="14" viewBox="0 0 19 14" fill="none" xmlns="http://www.w3.org/2000/svg">
<path d="M7.5 0C7.08577 0 6.75 0.348229 6.75 0.777778V3.88889C6.75 4.31844 7.08577 4.66667 7.5 4.66667H8.625V6.61111H2.25C2.04291 6.61111 1.875 6.78521 1.875 7V9.33333H0.75C0.33577 9.33333 0 9.68156 0 10.1111V13.2222C0 13.6518 0.33577 14 0.75 14H3.75C4.16423 14 4.5 13.6518 4.5 13.2222V10.1111C4.5 9.68156 4.16423 9.33333 3.75 9.33333H2.625V7.38889H8.625V9.33333H7.5C7.08577 9.33333 6.75 9.68156 6.75 10.1111V13.2222C6.75 13.6518 7.08577 14 7.5 14H10.5C10.9142 14 11.25 13.6518 11.25 13.2222V10.1111C11.25 9.68156 10.9142 9.33333 10.5 9.33333H9.375V7.38889H15.375V9.33333H14.25C13.8358 9.33333 13.5 9.68156 13.5 10.1111V13.2222C13.5 13.6518 13.8358 14 14.25 14H17.25C17.6642 14 18 13.6518 18 13.2222V10.1111C18 9.68156 17.6642 9.33333 17.25 9.33333H16.125V7C16.125 6.89687 16.0854 6.79794 16.0151 6.72502C15.9448 6.65208 15.8494 6.61111 15.75 6.61111H9.375V4.66667H10.5C10.9142 4.66667 11.25 4.31844 11.25 3.88889V0.777778C11.25 0.348229 10.9142 0 10.5 0H7.5Z" fill="#4F4F4F"/>
</svg>
