<svg width="10" height="14" viewBox="0 0 10 14" fill="none" xmlns="http://www.w3.org/2000/svg">
<path fill-rule="evenodd" clip-rule="evenodd" d="M8.75 0C9.44036 0 10 0.421376 10 0.94117V7.08226C10 7.60205 9.44035 8.02343 8.75 8.02343H5.9375L5.9375 11.509L8.06606 9.79954C8.42018 9.51513 9.01347 9.50073 9.3912 9.76736C9.76892 10.034 9.78806 10.4807 9.43394 10.7651L5.69269 13.7698C5.52125 13.9112 5.27439 14 5 14C4.72571 14 4.47894 13.9113 4.3075 13.7699L0.566059 10.7651C0.211935 10.4807 0.23107 10.034 0.608799 9.76736C0.986528 9.50073 1.57981 9.51513 1.93394 9.79954L4.0625 11.509L4.0625 8.02362L1.25 8.02343C0.559644 8.02343 0 7.60205 0 7.08226V0.941171C0 0.421377 0.559645 0 1.25 0H8.75ZM1.875 1.41175L8.125 1.41175V6.61167H1.875L1.875 1.41175Z" fill="#4F4F4F"/>
</svg>
