<svg width="12" height="11" viewBox="0 0 12 11" fill="none" xmlns="http://www.w3.org/2000/svg">
<path fill-rule="evenodd" clip-rule="evenodd" d="M-3.0598e-07 1.625C-3.30121e-07 0.934645 0.421376 0.375001 0.941169 0.375001L5.08226 0.375001C5.60205 0.375002 6.02343 0.934645 6.02343 1.625L6.02343 4.4375C6.02349 4.4375 6.02336 4.4375 6.02343 4.4375L9.50903 4.4375L7.79954 2.30894C7.51513 1.95482 7.50073 1.36153 7.76736 0.983804C8.03399 0.606077 8.4807 0.586941 8.7651 0.941065L11.7698 4.68231C11.9112 4.85375 12 5.10061 12 5.375C12 5.64929 11.9113 5.89606 11.7699 6.0675L8.7651 9.80894C8.48069 10.1631 8.03399 10.1439 7.76736 9.7662C7.50073 9.38847 7.51513 8.79519 7.79954 8.44106L9.50904 6.3125L6.02362 6.3125C6.02356 6.3125 6.02369 6.3125 6.02362 6.3125L6.02343 9.125C6.02343 9.81536 5.60205 10.375 5.08226 10.375L0.941171 10.375C0.421377 10.375 -1.95703e-08 9.81536 -4.37114e-08 9.125L-3.0598e-07 1.625ZM1.41175 8.5L1.41175 2.25L4.61167 2.25L4.61167 8.5L1.41175 8.5Z" fill="#4F4F4F"/>
</svg>
