<svg width="14" height="16" viewBox="0 0 14 16" fill="none" xmlns="http://www.w3.org/2000/svg">
<path d="M0.67749 14.3998V5.25698C0.67749 2.73225 2.69943 0.685547 5.19362 0.685547H12.4194C12.9183 0.685547 13.3227 1.09489 13.3227 1.59983V14.3998C13.3227 14.9048 12.9183 15.3141 12.4194 15.3141H1.58072C1.08188 15.3141 0.67749 14.9048 0.67749 14.3998Z" fill="white"/>
<path fill-rule="evenodd" clip-rule="evenodd" d="M5.19355 1.37143C3.07349 1.37143 1.35484 3.11112 1.35484 5.25714V14.4C1.35484 14.5262 1.45594 14.6286 1.58065 14.6286H12.4194C12.5441 14.6286 12.6452 14.5262 12.6452 14.4V1.6C12.6452 1.47376 12.5441 1.37143 12.4194 1.37143H5.19355ZM0 5.25714C0 2.3537 2.32523 0 5.19355 0H12.4194C13.2923 0 14 0.716344 14 1.6V14.4C14 15.2837 13.2923 16 12.4194 16H1.58065C0.707679 16 0 15.2837 0 14.4V5.25714Z" fill="#272738"/>
<path d="M0.67749 4.68555C0.67749 2.47641 2.46835 0.685547 4.67749 0.685547H5.19362V4.25698C5.19362 4.80926 4.7459 5.25698 4.19362 5.25698H0.67749V4.68555Z" fill="#272738"/>
</svg>
