<svg width="14" height="16" viewBox="0 0 14 16" fill="none" xmlns="http://www.w3.org/2000/svg">
<path d="M0.677734 14.4018V5.25893C0.677734 2.7342 2.69967 0.6875 5.19386 0.6875H12.4197C12.9185 0.6875 13.3229 1.09684 13.3229 1.60179V14.4018C13.3229 14.9067 12.9185 15.3161 12.4197 15.3161H1.58096C1.08212 15.3161 0.677734 14.9067 0.677734 14.4018Z" fill="white"/>
<path fill-rule="evenodd" clip-rule="evenodd" d="M5.19355 1.37143C3.07349 1.37143 1.35484 3.11112 1.35484 5.25714V14.4C1.35484 14.5262 1.45594 14.6286 1.58065 14.6286H12.4194C12.5441 14.6286 12.6452 14.5262 12.6452 14.4V1.6C12.6452 1.47376 12.5441 1.37143 12.4194 1.37143H5.19355ZM0 5.25714C0 2.3537 2.32523 0 5.19355 0H12.4194C13.2923 0 14 0.716344 14 1.6V14.4C14 15.2837 13.2923 16 12.4194 16H1.58065C0.707679 16 0 15.2837 0 14.4V5.25714Z" fill="#8C8C8C"/>
<path d="M0.677734 4.6875C0.677734 2.47836 2.4686 0.6875 4.67773 0.6875H5.19386V4.25893C5.19386 4.81121 4.74615 5.25893 4.19386 5.25893H0.677734V4.6875Z" fill="#8C8C8C"/>
</svg>
