<svg width="16" height="16" viewBox="0 0 16 16" fill="none" xmlns="http://www.w3.org/2000/svg">
<path fill-rule="evenodd" clip-rule="evenodd" d="M5 1V5C5 5.35372 5.18365 5.66454 5.4608 5.84233L3.38197 10H1C0.447715 10 0 10.4477 0 11V15C0 15.5523 0.447715 16 1 16H5C5.55228 16 6 15.5523 6 15V14H10V15C10 15.5523 10.4477 16 11 16H15C15.5523 16 16 15.5523 16 15V11C16 10.4477 15.5523 10 15 10H12.618L10.5392 5.84233C10.8163 5.66454 11 5.35372 11 5V1C11 0.447715 10.5523 0 10 0H6C5.44772 0 5 0.447715 5 1ZM6.5 6H9.5L11.5 10H11C10.4477 10 10 10.4477 10 11V13H6V11C6 10.4477 5.55228 10 5 10H4.5L6.5 6Z" fill="#272738"/>
</svg>
