<svg width="16" height="16" viewBox="0 0 16 16" fill="none" xmlns="http://www.w3.org/2000/svg">
<path fill-rule="evenodd" clip-rule="evenodd" d="M14.3556 0.488889L15.5911 1.98222C15.8489 2.28444 16 2.68444 16 3.11111V14.2222C16 15.2 15.2 16 14.2222 16H1.77778C0.8 16 0 15.2 0 14.2222V3.11111C0 2.68444 0.151111 2.28444 0.408889 1.98222L1.63556 0.488889C1.88444 0.186667 2.24889 0 2.66667 0H13.3333C13.7511 0 14.1156 0.186667 14.3556 0.488889ZM13.1199 1.77778H2.87993L2.16882 2.64H13.8399L13.1199 1.77778ZM1.77783 14.2222V4.44444H14.2223V14.2222H1.77783ZM6.71112 6.22222H9.2889V8.88889H11.5556L8.00001 12.4444L4.44446 8.88889H6.71112V6.22222Z" fill="#272838"/>
</svg>
