<svg width="16" height="17" viewBox="0 0 16 17" fill="none" xmlns="http://www.w3.org/2000/svg">
<path d="M0.345828 4.43211L7.01249 0.549231C7.45679 0.290462 8 0.631489 8 1.16918V11.8698C8 12.1279 7.86745 12.3655 7.65417 12.4898L0.987506 16.3726C0.543215 16.6314 0 16.2904 0 15.7527V5.05206C0 4.79394 0.13255 4.55633 0.345828 4.43211Z" fill="white"/>
<path fill-rule="evenodd" clip-rule="evenodd" d="M1 5.26132V15.1551L7 11.6606V1.76673L1 5.26132ZM7.17241 11.5601L7.17291 11.5598L7.33333 11.8698L7.17291 11.5598C7.17275 11.5599 7.17258 11.56 7.17241 11.5601ZM7.01249 0.549231L0.345828 4.43211C0.13255 4.55633 0 4.79394 0 5.05206V15.7527C0 16.2904 0.543215 16.6314 0.987506 16.3726L7.65417 12.4898C7.86745 12.3655 8 12.1279 8 11.8698V1.16918C8 0.631489 7.45679 0.290462 7.01249 0.549231Z" fill="#272738"/>
<path d="M4.34583 4.43211L11.0125 0.549231C11.4568 0.290462 12 0.631489 12 1.16918V11.8698C12 12.1279 11.8675 12.3655 11.6542 12.4898L4.98751 16.3726C4.54321 16.6314 4 16.2904 4 15.7527V5.05206C4 4.79394 4.13255 4.55633 4.34583 4.43211Z" fill="white"/>
<path fill-rule="evenodd" clip-rule="evenodd" d="M5 5.26132V15.1551L11 11.6606V1.76673L5 5.26132ZM11.1724 11.5601L11.1729 11.5598L11.3333 11.8698L11.1729 11.5598C11.1727 11.5599 11.1726 11.56 11.1724 11.5601ZM11.0125 0.549231L4.34583 4.43211C4.13255 4.55633 4 4.79394 4 5.05206V15.7527C4 16.2904 4.54321 16.6314 4.98751 16.3726L11.6542 12.4898C11.8675 12.3655 12 12.1279 12 11.8698V1.16918C12 0.631489 11.4568 0.290462 11.0125 0.549231Z" fill="#272738"/>
<path d="M8.34583 4.43211L15.0125 0.549231C15.4568 0.290462 16 0.631489 16 1.16918V11.8698C16 12.1279 15.8675 12.3655 15.6542 12.4898L8.98751 16.3726C8.54321 16.6314 8 16.2904 8 15.7527V5.05206C8 4.79394 8.13255 4.55633 8.34583 4.43211Z" fill="white"/>
<path fill-rule="evenodd" clip-rule="evenodd" d="M9 5.26132V15.1551L15 11.6606V1.76673L9 5.26132ZM15.1724 11.5601L15.1729 11.5598L15.3333 11.8698L15.1729 11.5598C15.1727 11.5599 15.1726 11.56 15.1724 11.5601ZM15.0125 0.549231L8.34583 4.43211C8.13255 4.55633 8 4.79394 8 5.05206V15.7527C8 16.2904 8.54321 16.6314 8.98751 16.3726L15.6542 12.4898C15.8675 12.3655 16 12.1279 16 11.8698V1.16918C16 0.631489 15.4568 0.290462 15.0125 0.549231Z" fill="#272738"/>
<path fill-rule="evenodd" clip-rule="evenodd" d="M9.32422 13.253L14.9996 9.88624L9.32422 6.51953L9.32422 13.253ZM9.32389 8.51562H1.5V11.2589H9.32389V8.51562Z" fill="#272738"/>
</svg>
