<svg width="16" height="17" viewBox="0 0 16 17" fill="none" xmlns="http://www.w3.org/2000/svg">
<path d="M15.6542 4.43211L8.98751 0.549231C8.54321 0.290462 8 0.631489 8 1.16918V11.8698C8 12.1279 8.13255 12.3655 8.34583 12.4898L15.0125 16.3726C15.4568 16.6314 16 16.2904 16 15.7527V5.05206C16 4.79394 15.8674 4.55633 15.6542 4.43211Z" fill="white"/>
<path fill-rule="evenodd" clip-rule="evenodd" d="M15 5.26132V15.1551L9 11.6606V1.76673L15 5.26132ZM8.82759 11.5601L8.82709 11.5598L8.66667 11.8698L8.82709 11.5598C8.82725 11.5599 8.82742 11.56 8.82759 11.5601ZM8.98751 0.549231L15.6542 4.43211C15.8674 4.55633 16 4.79394 16 5.05206V15.7527C16 16.2904 15.4568 16.6314 15.0125 16.3726L8.34583 12.4898C8.13255 12.3655 8 12.1279 8 11.8698V1.16918C8 0.631489 8.54321 0.290462 8.98751 0.549231Z" fill="#8C8C8C"/>
<path d="M11.6542 4.43211L4.98751 0.549231C4.54321 0.290462 4 0.631489 4 1.16918V11.8698C4 12.1279 4.13255 12.3655 4.34583 12.4898L11.0125 16.3726C11.4568 16.6314 12 16.2904 12 15.7527V5.05206C12 4.79394 11.8674 4.55633 11.6542 4.43211Z" fill="white"/>
<path fill-rule="evenodd" clip-rule="evenodd" d="M11 5.26132V15.1551L5 11.6606V1.76673L11 5.26132ZM4.82759 11.5601L4.82709 11.5598L4.66667 11.8698L4.82709 11.5598C4.82725 11.5599 4.82742 11.56 4.82759 11.5601ZM4.98751 0.549231L11.6542 4.43211C11.8674 4.55633 12 4.79394 12 5.05206V15.7527C12 16.2904 11.4568 16.6314 11.0125 16.3726L4.34583 12.4898C4.13255 12.3655 4 12.1279 4 11.8698V1.16918C4 0.631489 4.54321 0.290462 4.98751 0.549231Z" fill="#8C8C8C"/>
<path d="M7.65417 4.43211L0.987505 0.549231C0.543214 0.290462 0 0.631489 0 1.16918V11.8698C0 12.1279 0.13255 12.3655 0.345828 12.4898L7.01249 16.3726C7.45679 16.6314 8 16.2904 8 15.7527V5.05206C8 4.79394 7.86745 4.55633 7.65417 4.43211Z" fill="white"/>
<path fill-rule="evenodd" clip-rule="evenodd" d="M7 5.26132V15.1551L1 11.6606V1.76673L7 5.26132ZM0.827593 11.5601L0.827086 11.5598L0.666666 11.8698L0.827085 11.5598C0.827254 11.5599 0.827424 11.56 0.827593 11.5601ZM0.987505 0.549231L7.65417 4.43211C7.86745 4.55633 8 4.79394 8 5.05206V15.7527C8 16.2904 7.45679 16.6314 7.01249 16.3726L0.345828 12.4898C0.13255 12.3655 0 12.1279 0 11.8698V1.16918C0 0.631489 0.543214 0.290462 0.987505 0.549231Z" fill="#8C8C8C"/>
<mask id="path-7-outside-1_5475_20065" maskUnits="userSpaceOnUse" x="0" y="6" width="14" height="8" fill="black">
<rect fill="white" y="6" width="14" height="8"/>
<path fill-rule="evenodd" clip-rule="evenodd" d="M5.86523 12.7715L1.00063 9.88575L5.86523 7L5.86523 12.7715ZM5.86525 8.71094H13V11.0623H5.86525V8.71094Z"/>
</mask>
<path fill-rule="evenodd" clip-rule="evenodd" d="M5.86523 12.7715L1.00063 9.88575L5.86523 7L5.86523 12.7715ZM5.86525 8.71094H13V11.0623H5.86525V8.71094Z" fill="white"/>
<path d="M1.00063 9.88575L0.490432 10.7458C0.18679 10.5657 0.000629425 10.2388 0.000629425 9.88575C0.000629425 9.5327 0.18679 9.20582 0.490432 9.02569L1.00063 9.88575ZM5.86523 12.7715H6.86523C6.86523 13.1309 6.6724 13.4626 6.36011 13.6405C6.04782 13.8183 5.66412 13.8149 5.35504 13.6316L5.86523 12.7715ZM5.86523 7L5.35504 6.13994C5.66412 5.95659 6.04782 5.95319 6.36011 6.13104C6.67239 6.30888 6.86523 6.64062 6.86523 7L5.86523 7ZM13 8.71094V7.71094C13.5523 7.71094 14 8.15865 14 8.71094H13ZM5.86525 8.71094H4.86525C4.86525 8.15865 5.31296 7.71094 5.86525 7.71094V8.71094ZM13 11.0623H14C14 11.6146 13.5523 12.0623 13 12.0623V11.0623ZM5.86525 11.0623V12.0623C5.31296 12.0623 4.86525 11.6146 4.86525 11.0623H5.86525ZM1.51083 9.02569L6.37543 11.9114L5.35504 13.6316L0.490432 10.7458L1.51083 9.02569ZM6.37543 7.86006L1.51083 10.7458L0.490432 9.02569L5.35504 6.13994L6.37543 7.86006ZM4.86523 12.7715V7L6.86523 7L6.86523 12.7715H4.86523ZM13 9.71094H5.86525V7.71094H13V9.71094ZM12 11.0623V8.71094H14V11.0623H12ZM5.86525 10.0623H13V12.0623H5.86525V10.0623ZM6.86525 8.71094V11.0623H4.86525V8.71094H6.86525Z" fill="#8C8C8C" mask="url(#path-7-outside-1_5475_20065)"/>
</svg>
