<svg width="16" height="16" viewBox="0 0 16 16" fill="none" xmlns="http://www.w3.org/2000/svg">
<path fill-rule="evenodd" clip-rule="evenodd" d="M15.5911 1.98222L14.3556 0.488889C14.1156 0.186667 13.7511 0 13.3333 0H2.66667C2.24889 0 1.88444 0.186667 1.63556 0.488889L0.408889 1.98222C0.151111 2.28444 0 2.68444 0 3.11111V14.2222C0 15.2 0.8 16 1.77778 16H14.2222C15.2 16 16 15.2 16 14.2222V3.11111C16 2.68444 15.8489 2.28444 15.5911 1.98222ZM2.53557 1.77734H13.4541L14.2218 2.63957H1.77734L2.53557 1.77734ZM9.28802 12.4453H6.71024V9.77865H4.44358L7.99913 6.22309L11.5547 9.77865H9.28802V12.4453Z" fill="#8C8C8C"/>
</svg>
