<svg width="16" height="16" viewBox="0 0 16 16" fill="none" xmlns="http://www.w3.org/2000/svg">
<path fill-rule="evenodd" clip-rule="evenodd" d="M15.5911 1.98222L14.3556 0.488889C14.1156 0.186667 13.7511 0 13.3333 0H2.66667C2.24889 0 1.88444 0.186667 1.63556 0.488889L0.408889 1.98222C0.151111 2.28444 0 2.68444 0 3.11111V14.2222C0 15.2 0.8 16 1.77778 16H14.2222C15.2 16 16 15.2 16 14.2222V3.11111C16 2.68444 15.8489 2.28444 15.5911 1.98222ZM2.53606 1.7778H13.4546L14.2223 2.64002H1.77783L2.53606 1.7778ZM9.28888 12.4445H6.7111L6.7111 9.7778H4.44443L7.99999 6.22224L11.5555 9.7778L9.28888 9.7778V12.4445Z" fill="#272838"/>
</svg>
