<svg width="16" height="16" viewBox="0 0 16 16" fill="none" xmlns="http://www.w3.org/2000/svg">
<path fill-rule="evenodd" clip-rule="evenodd" d="M1.77778 0H12.4444L16 3.55556V14.2222C16 15.2 15.2 16 14.2222 16H1.77778C0.791111 16 0 15.2 0 14.2222V1.77778C0 0.8 0.791111 0 1.77778 0ZM1.77783 14.2222H14.2223V4.29333L11.7067 1.77778H1.77783V14.2222ZM8.00004 8C6.52449 8 5.33337 9.19111 5.33337 10.6667C5.33337 12.1422 6.52449 13.3333 8.00004 13.3333C9.4756 13.3333 10.6667 12.1422 10.6667 10.6667C10.6667 9.19111 9.4756 8 8.00004 8ZM10.6666 2.66667H2.66663V6.22222H10.6666V2.66667Z" fill="#272838"/>
</svg>
