<svg width="24" height="24" viewBox="0 0 24 24" fill="none" xmlns="http://www.w3.org/2000/svg">
<path fill-rule="evenodd" clip-rule="evenodd" d="M1.5 6.5V1.5H6.5V6.5H1.5ZM0 1C0 0.447715 0.447715 0 1 0H7C7.55228 0 8 0.447715 8 1V7C8 7.55228 7.55228 8 7 8H4.75V11.25H8V9C8 8.44772 8.44772 8 9 8H15C15.5523 8 16 8.44772 16 9V15C16 15.5523 15.5523 16 15 16H12.75V19.25H16V17C16 16.4477 16.4477 16 17 16H23C23.5523 16 24 16.4477 24 17V23C24 23.5523 23.5523 24 23 24H17C16.4477 24 16 23.5523 16 23V20.75H12C11.5858 20.75 11.25 20.4142 11.25 20V16H9C8.44772 16 8 15.5523 8 15V12.75H4C3.58579 12.75 3.25 12.4142 3.25 12V8H1C0.447715 8 0 7.55228 0 7V1ZM17.5 22.5H22.5V17.5H17.5V22.5ZM14.5 14.5H9.5V9.5H14.5V14.5Z" fill="#272738"/>
</svg>
