<svg width="27" height="26" viewBox="0 0 27 26" fill="none" xmlns="http://www.w3.org/2000/svg">
<path d="M1 1V24C1 24.5523 1.44772 25 2 25H25.338" stroke="#272738" stroke-width="1.5" stroke-linecap="round"/>
<path d="M6.00586 2C6.00586 1.86193 6.11779 1.75 6.25586 1.75H21.3826C21.5207 1.75 21.6326 1.86193 21.6326 2V6C21.6326 6.13807 21.5207 6.25 21.3826 6.25H6.25586C6.11779 6.25 6.00586 6.13807 6.00586 6V2Z" stroke="#272738" stroke-width="1.5"/>
<path d="M6.00586 10C6.00586 9.86193 6.11779 9.75 6.25586 9.75H21.3826C21.5207 9.75 21.6326 9.86193 21.6326 10V14C21.6326 14.1381 21.5207 14.25 21.3826 14.25H6.25586C6.11779 14.25 6.00586 14.1381 6.00586 14V10Z" stroke="#272738" stroke-width="1.5"/>
<path d="M6.00586 18C6.00586 17.8619 6.11779 17.75 6.25586 17.75H21.3826C21.5207 17.75 21.6326 17.8619 21.6326 18V22C21.6326 22.1381 21.5207 22.25 21.3826 22.25H6.25586C6.11779 22.25 6.00586 22.1381 6.00586 22V18Z" stroke="#272738" stroke-width="1.5"/>
</svg>
