<svg width="26" height="26" viewBox="0 0 26 26" fill="none" xmlns="http://www.w3.org/2000/svg">
<path d="M1 1V24C1 24.5523 1.44772 25 2 25H25" stroke="#272738" stroke-width="1.5" stroke-linecap="round"/>
<path d="M5.94727 2C5.94727 1.86193 6.05919 1.75 6.19727 1.75H21.0862C21.2242 1.75 21.3362 1.86193 21.3362 2V6C21.3362 6.13807 21.2242 6.25 21.0862 6.25H6.19726C6.05919 6.25 5.94727 6.13807 5.94727 6V2Z" fill="#FA00FF" stroke="#272738" stroke-width="1.5"/>
<path d="M5.94727 10C5.94727 9.86193 6.05919 9.75 6.19727 9.75H21.0862C21.2242 9.75 21.3362 9.86193 21.3362 10V14C21.3362 14.1381 21.2242 14.25 21.0862 14.25H6.19726C6.05919 14.25 5.94727 14.1381 5.94727 14V10Z" fill="#FEF445" stroke="#272738" stroke-width="1.5"/>
<path d="M5.94727 18C5.94727 17.8619 6.05919 17.75 6.19727 17.75H21.0862C21.2242 17.75 21.3362 17.8619 21.3362 18V22C21.3362 22.1381 21.2242 22.25 21.0862 22.25H6.19726C6.05919 22.25 5.94727 22.1381 5.94727 22V18Z" fill="#00F0FF" stroke="#272738" stroke-width="1.5"/>
</svg>
