<svg width="20" height="24" viewBox="0 0 20 24" fill="none" xmlns="http://www.w3.org/2000/svg">
<path d="M3.45103 6.0437H16.2609C16.3966 6.0437 16.5309 6.07192 16.6563 6.12674C16.7816 6.18156 16.8955 6.26192 16.9914 6.36322C17.0874 6.46452 17.1634 6.58478 17.2154 6.71714C17.2673 6.84949 17.294 6.99135 17.294 7.13461V19.6364C17.294 20.5044 16.9675 21.3368 16.3863 21.9506C15.8051 22.5644 15.0168 22.9092 14.1948 22.9092H5.51714C4.69519 22.9092 3.9069 22.5644 3.3257 21.9506C2.74449 21.3368 2.41797 20.5044 2.41797 19.6364V7.13461C2.41797 6.84528 2.52681 6.56781 2.72054 6.36322C2.91428 6.15864 3.17704 6.0437 3.45103 6.0437V6.0437Z" stroke="#272738" stroke-width="1.5" stroke-miterlimit="10"/>
<path d="M1.0332 3.09814H18.9671" stroke="#272738" stroke-width="1.5" stroke-miterlimit="10" stroke-linecap="round"/>
<path d="M7.3146 0.829102H12.6658C13.0494 0.829102 13.4173 0.99001 13.6885 1.27643C13.9597 1.56285 14.1121 1.95132 14.1121 2.35637H5.84766C5.84766 2.15581 5.88507 1.95721 5.95775 1.77191C6.03043 1.58661 6.13696 1.41825 6.27126 1.27643C6.40556 1.13461 6.565 1.02211 6.74047 0.945358C6.91594 0.868606 7.10401 0.829102 7.29394 0.829102H7.3146Z" stroke="#272738" stroke-width="0.75" stroke-miterlimit="10" stroke-linecap="round"/>
<path d="M5.86719 18.9601V9.49097" stroke="#272738" stroke-width="0.5" stroke-miterlimit="10" stroke-linecap="round"/>
<path d="M10 18.9601V9.49097" stroke="#272738" stroke-width="0.5" stroke-miterlimit="10" stroke-linecap="round"/>
<path d="M14.1113 18.9601V9.49097" stroke="#272738" stroke-width="0.5" stroke-miterlimit="10" stroke-linecap="round"/>
</svg>
