<svg width="24" height="24" viewBox="0 0 24 24" fill="none" xmlns="http://www.w3.org/2000/svg">
<mask id="path-1-inside-1_5475_20830" fill="white">
<path d="M22.7878 1.21216C21.1715 -0.404054 18.551 -0.404054 16.9347 1.21216L22.7878 7.065C24.4041 5.44879 24.4041 2.82838 22.7878 1.21216Z"/>
<path d="M15.6333 2.51347C16.0238 2.12296 16.6569 2.12296 17.0475 2.51347L21.4863 6.95212C21.8769 7.34265 21.8769 7.97584 21.4863 8.36637L6.77564 23.0765C6.61315 23.239 6.39965 23.3405 6.17106 23.3641L1.2231 23.874C0.592199 23.939 0.0609296 23.4078 0.125841 22.7769L0.634976 17.8283C0.658502 17.5997 0.760087 17.3861 0.922632 17.2235L15.6333 2.51347Z"/>
</mask>
<path d="M16.9347 1.21216L15.8741 0.15148L14.8133 1.21216L15.8741 2.27285L16.9347 1.21216ZM22.7878 1.21216L21.7271 2.27285V2.27285L22.7878 1.21216ZM22.7878 7.065L21.7271 8.12569L22.7878 9.18628L23.8484 8.12569L22.7878 7.065ZM1.2231 23.874L1.06934 22.3819L1.2231 23.874ZM0.922632 17.2235L1.98327 18.2842L0.922632 17.2235ZM0.634976 17.8283L-0.857148 17.6748L0.634976 17.8283ZM6.77564 23.0765L5.715 22.0158L6.77564 23.0765ZM6.17106 23.3641L6.0173 21.872L6.17106 23.3641ZM21.4863 6.95212L20.4257 8.01281L21.4863 6.95212ZM21.4863 8.36637L20.4257 7.30569L21.4863 8.36637ZM15.6333 2.51347L16.6939 3.57415L15.6333 2.51347ZM17.9953 2.27285C19.0258 1.24238 20.6966 1.24238 21.7271 2.27285L23.8484 0.15148C21.6464 -2.05049 18.0761 -2.05049 15.8741 0.15148L17.9953 2.27285ZM21.7271 2.27285C22.7576 3.30327 22.7576 4.97389 21.7271 6.00432L23.8484 8.12569C26.0505 5.92368 26.0505 2.35349 23.8484 0.15148L21.7271 2.27285ZM15.8741 2.27285L21.7271 8.12569L23.8484 6.00432L17.9953 0.15148L15.8741 2.27285ZM15.9868 3.57415L20.4257 8.01281L22.547 5.89144L18.1081 1.45278L15.9868 3.57415ZM20.4257 7.30569L5.715 22.0158L7.83628 24.1371L22.547 9.42705L20.4257 7.30569ZM1.98327 18.2842L16.6939 3.57415L14.5726 1.45279L-0.138008 16.1629L1.98327 18.2842ZM6.0173 21.872L1.06934 22.3819L1.37686 25.3661L6.32482 24.8562L6.0173 21.872ZM1.61796 22.9304L2.1271 17.9818L-0.857148 17.6748L-1.36628 22.6234L1.61796 22.9304ZM1.06934 22.3819C1.38479 22.3494 1.65042 22.6149 1.61796 22.9304L-1.36628 22.6234C-1.52856 24.2006 -0.200387 25.5286 1.37686 25.3661L1.06934 22.3819ZM-0.138008 16.1629C-0.54437 16.5692 -0.798333 17.1031 -0.857148 17.6748L2.1271 17.9818C2.11534 18.0962 2.06454 18.203 1.98327 18.2842L-0.138008 16.1629ZM5.715 22.0158C5.79625 21.9345 5.90301 21.8838 6.0173 21.872L6.32482 24.8562C6.89629 24.7973 7.43004 24.5434 7.83628 24.1371L5.715 22.0158ZM20.4257 8.01281C20.2304 7.81754 20.2304 7.50095 20.4257 7.30569L22.547 9.42705C23.5233 8.45073 23.5233 6.86776 22.547 5.89144L20.4257 8.01281ZM18.1081 1.45278C17.1318 0.476526 15.5489 0.476523 14.5726 1.45279L16.6939 3.57415C16.4987 3.7694 16.1821 3.7694 15.9868 3.57415L18.1081 1.45278Z" fill="#272738" mask="url(#path-1-inside-1_5475_20830)"/>
</svg>
