<svg width="26" height="22" viewBox="0 0 26 22" fill="none" xmlns="http://www.w3.org/2000/svg">
<path fill-rule="evenodd" clip-rule="evenodd" d="M3.85693 10.0104L22.7046 12.0346L3.85693 10.0104Z" fill="white"/>
<path fill-rule="evenodd" clip-rule="evenodd" d="M3.28931 12.3954L22.5879 14.3274L3.28931 12.3954Z" fill="white"/>
<path fill-rule="evenodd" clip-rule="evenodd" d="M1 3.82822V18.1718C1 19.7325 2.31991 21 3.9451 21H22.0549C23.6801 21 25 19.7325 25 18.1718V3.82822C25 2.26754 23.6801 1 22.0549 1H3.9451C2.31991 1 1 2.26754 1 3.82822Z" fill="white"/>
<path fill-rule="evenodd" clip-rule="evenodd" d="M5.41394 18.056C7.59835 17.0726 10.4508 17.3968 11.9677 15.1046C14.338 11.5228 13.748 8.82056 14.0416 1.1104" fill="white"/>
<path d="M3.85693 10.0104L22.7046 12.0346M3.28931 12.3954L22.5879 14.3274M5.41394 18.056C7.59835 17.0726 10.4508 17.3968 11.9677 15.1046C14.338 11.5228 13.748 8.82056 14.0416 1.1104M1 3.82822V18.1718C1 19.7325 2.31991 21 3.9451 21H22.0549C23.6801 21 25 19.7325 25 18.1718V3.82822C25 2.26754 23.6801 1 22.0549 1H3.9451C2.31991 1 1 2.26754 1 3.82822Z" stroke="black" stroke-width="1.5" stroke-miterlimit="10" stroke-linecap="round" stroke-linejoin="round"/>
</svg>
