<svg width="24" height="24" viewBox="0 0 24 24" fill="none" xmlns="http://www.w3.org/2000/svg">
<path fill-rule="evenodd" clip-rule="evenodd" d="M10.6571 7.18465L9.31541 6.51383C10.421 4.30269 13.5764 4.30268 14.682 6.51383L19.7549 16.6597C20.7523 18.6544 19.3018 21.0014 17.0716 21.0014H6.92575C4.6956 21.0014 3.24511 18.6544 4.24246 16.6597L9.31541 6.51383L10.6571 7.18465ZM5.58411 17.3305L10.6571 7.18465C11.2098 6.07908 12.7875 6.07907 13.3403 7.18465L18.4133 17.3305C18.912 18.3279 18.1867 19.5014 17.0716 19.5014H6.92575C5.81067 19.5014 5.08543 18.3279 5.58411 17.3305Z" fill="#272738"/>
<path d="M15 22.5V16.5C15 15.6716 15.6716 15 16.5 15H22.5C23.3284 15 24 15.6716 24 16.5V22.5C24 23.3284 23.3284 24 22.5 24H16.5C15.6716 24 15 23.3284 15 22.5Z" fill="#00F0FF"/>
<path fill-rule="evenodd" clip-rule="evenodd" d="M15.75 16.5V22.5C15.75 22.9142 16.0858 23.25 16.5 23.25H22.5C22.9142 23.25 23.25 22.9142 23.25 22.5V16.5C23.25 16.0858 22.9142 15.75 22.5 15.75H16.5C16.0858 15.75 15.75 16.0858 15.75 16.5ZM15 16.5V22.5C15 23.3284 15.6716 24 16.5 24H22.5C23.3284 24 24 23.3284 24 22.5V16.5C24 15.6716 23.3284 15 22.5 15H16.5C15.6716 15 15 15.6716 15 16.5Z" fill="#069098"/>
<path d="M0 22.5V16.5C0 15.6716 0.671573 15 1.5 15H7.5C8.32843 15 9 15.6716 9 16.5V22.5C9 23.3284 8.32843 24 7.5 24H1.5C0.671573 24 0 23.3284 0 22.5Z" fill="#FEF445"/>
<path fill-rule="evenodd" clip-rule="evenodd" d="M0.75 16.5V22.5C0.75 22.9142 1.08579 23.25 1.5 23.25H7.5C7.91421 23.25 8.25 22.9142 8.25 22.5V16.5C8.25 16.0858 7.91421 15.75 7.5 15.75H1.5C1.08579 15.75 0.75 16.0858 0.75 16.5ZM0 16.5V22.5C0 23.3284 0.671573 24 1.5 24H7.5C8.32843 24 9 23.3284 9 22.5V16.5C9 15.6716 8.32843 15 7.5 15H1.5C0.671573 15 0 15.6716 0 16.5Z" fill="#FBC913"/>
<path d="M7.5 7.5V1.5C7.5 0.671573 8.17157 0 9 0H15C15.8284 0 16.5 0.671573 16.5 1.5V7.5C16.5 8.32843 15.8284 9 15 9H9C8.17157 9 7.5 8.32843 7.5 7.5Z" fill="#FA00FF"/>
<path fill-rule="evenodd" clip-rule="evenodd" d="M8.25 1.5V7.5C8.25 7.91421 8.58579 8.25 9 8.25H15C15.4142 8.25 15.75 7.91421 15.75 7.5V1.5C15.75 1.08579 15.4142 0.75 15 0.75H9C8.58579 0.75 8.25 1.08579 8.25 1.5ZM7.5 1.5V7.5C7.5 8.32843 8.17157 9 9 9H15C15.8284 9 16.5 8.32843 16.5 7.5V1.5C16.5 0.671573 15.8284 0 15 0H9C8.17157 0 7.5 0.671573 7.5 1.5Z" fill="#A300A7"/>
</svg>
