<svg width="26" height="26" viewBox="0 0 26 26" fill="none" xmlns="http://www.w3.org/2000/svg">
<path d="M1 1V24C1 24.5523 1.44772 25 2 25H25" stroke="#272738" stroke-width="1.5" stroke-linecap="round"/>
<path d="M3.75 2C3.75 1.86193 3.86193 1.75 4 1.75H8C8.13807 1.75 8.25 1.86193 8.25 2V6C8.25 6.13807 8.13807 6.25 8 6.25H4C3.86193 6.25 3.75 6.13807 3.75 6V2Z" fill="#FFFAA9" stroke="#272738" stroke-width="1.5"/>
<path d="M11.75 2C11.75 1.86193 11.8619 1.75 12 1.75H16C16.1381 1.75 16.25 1.86193 16.25 2V6C16.25 6.13807 16.1381 6.25 16 6.25H12C11.8619 6.25 11.75 6.13807 11.75 6V2Z" fill="#FA00FF" stroke="#272738" stroke-width="1.5"/>
<path d="M19.75 2C19.75 1.86193 19.8619 1.75 20 1.75H24C24.1381 1.75 24.25 1.86193 24.25 2V6C24.25 6.13807 24.1381 6.25 24 6.25H20C19.8619 6.25 19.75 6.13807 19.75 6V2Z" fill="#FA00FF" stroke="#272738" stroke-width="1.5"/>
<path d="M3.75 10C3.75 9.86193 3.86193 9.75 4 9.75H8C8.13807 9.75 8.25 9.86193 8.25 10V14C8.25 14.1381 8.13807 14.25 8 14.25H4C3.86193 14.25 3.75 14.1381 3.75 14V10Z" fill="#FFFAA9" stroke="#272738" stroke-width="1.5"/>
<path d="M11.75 10C11.75 9.86193 11.8619 9.75 12 9.75H16C16.1381 9.75 16.25 9.86193 16.25 10V14C16.25 14.1381 16.1381 14.25 16 14.25H12C11.8619 14.25 11.75 14.1381 11.75 14V10Z" fill="#00F0FF" stroke="#272738" stroke-width="1.5"/>
<path d="M19.75 10C19.75 9.86193 19.8619 9.75 20 9.75H24C24.1381 9.75 24.25 9.86193 24.25 10V14C24.25 14.1381 24.1381 14.25 24 14.25H20C19.8619 14.25 19.75 14.1381 19.75 14V10Z" fill="#00F0FF" stroke="#272738" stroke-width="1.5"/>
<path d="M3.75 18C3.75 17.8619 3.86193 17.75 4 17.75H8C8.13807 17.75 8.25 17.8619 8.25 18V22C8.25 22.1381 8.13807 22.25 8 22.25H4C3.86193 22.25 3.75 22.1381 3.75 22V18Z" fill="#FA00FF" stroke="#272738" stroke-width="1.5"/>
<path d="M11.75 18C11.75 17.8619 11.8619 17.75 12 17.75H16C16.1381 17.75 16.25 17.8619 16.25 18V22C16.25 22.1381 16.1381 22.25 16 22.25H12C11.8619 22.25 11.75 22.1381 11.75 22V18Z" fill="#FFFAA9" stroke="#272738" stroke-width="1.5"/>
<path d="M19.75 18C19.75 17.8619 19.8619 17.75 20 17.75H24C24.1381 17.75 24.25 17.8619 24.25 18V22C24.25 22.1381 24.1381 22.25 24 22.25H20C19.8619 22.25 19.75 22.1381 19.75 22V18Z" fill="#00F0FF" stroke="#272738" stroke-width="1.5"/>
</svg>
