<svg width="22" height="20" viewBox="0 0 22 20" fill="none" xmlns="http://www.w3.org/2000/svg">
<path d="M11.3242 18.25C10.91 18.25 10.5742 18.5858 10.5742 19C10.5742 19.4142 10.91 19.75 11.3242 19.75V18.25ZM19.5742 10C19.5742 14.5563 15.8806 18.25 11.3242 18.25V19.75C16.709 19.75 21.0742 15.3848 21.0742 10H19.5742ZM3.07422 10C3.07422 5.44365 6.76787 1.75 11.3242 1.75V0.25C5.93944 0.25 1.57422 4.61522 1.57422 10H3.07422ZM11.3242 1.75C15.8806 1.75 19.5742 5.44365 19.5742 10H21.0742C21.0742 4.61522 16.709 0.25 11.3242 0.25V1.75Z" fill="#272738"/>
<path d="M3.83781 9H0.807351C0.436063 9 0.194293 9.39039 0.359725 9.72278L1.87496 12.7673C2.05892 13.1369 2.58625 13.1369 2.77021 12.7673L4.28544 9.72278C4.45087 9.39039 4.2091 9 3.83781 9Z" fill="#272738"/>
<path d="M10.9882 11.8242L12.4836 6.71891C12.6084 6.29279 12.9992 6 13.4432 6H13.5768C14.2695 6 14.7524 6.68726 14.5176 7.33896L12.3558 13.339C12.2129 13.7356 11.8366 14 11.415 14H10.5634C10.1409 14 9.76392 13.7344 9.62172 13.3365L7.47761 7.33651C7.24487 6.68524 7.72768 6 8.41929 6H8.53839C8.98276 6 9.37383 6.29324 9.49834 6.71981L10.9882 11.8242Z" fill="#272738"/>
</svg>
