<svg width="10" height="10" viewBox="0 0 10 10" fill="none" xmlns="http://www.w3.org/2000/svg">
<path fill-rule="evenodd" clip-rule="evenodd" d="M9.76116 0.133137C9.93867 0.31065 9.93867 0.598452 9.76116 0.775961L0.775954 9.76097C0.598441 9.93848 0.310639 9.93847 0.13313 9.76096C-0.0443793 9.58345 -0.0443762 9.29564 0.133137 9.11813L9.11834 0.13313C9.29585 -0.0443793 9.58365 -0.0443762 9.76116 0.133137ZM9.76116 4.4978C9.93867 4.67531 9.93867 4.96312 9.76116 5.14063L5.14071 9.76097C4.9632 9.93848 4.6754 9.93847 4.49789 9.76096C4.32038 9.58345 4.32038 9.29564 4.4979 9.11814L9.11834 4.49779C9.29585 4.32029 9.58365 4.32029 9.76116 4.4978ZM9.86687 7.98953C10.0444 8.16705 10.0444 8.45485 9.86686 8.63236L8.63232 9.86687C8.45481 10.0444 8.16701 10.0444 7.9895 9.86686C7.81199 9.68935 7.81199 9.40155 7.98951 9.22404L9.22405 7.98953C9.40156 7.81202 9.68936 7.81202 9.86687 7.98953Z" fill="#4F4F4F"/>
</svg>
