<svg width="24" height="24" viewBox="0 0 24 24" fill="none" xmlns="http://www.w3.org/2000/svg">
<path fill-rule="evenodd" clip-rule="evenodd" d="M23.4268 0.319528C23.8528 0.74556 23.8528 1.43629 23.4268 1.86231L1.86229 23.4263C1.43626 23.8523 0.745533 23.8523 0.319511 23.4263C-0.10651 23.0003 -0.106503 22.3095 0.319528 21.8835L21.884 0.319511C22.31 -0.10651 23.0008 -0.106503 23.4268 0.319528ZM23.4268 10.7947C23.8528 11.2208 23.8528 11.9115 23.4268 12.3375L12.3377 23.4263C11.9117 23.8523 11.221 23.8523 10.7949 23.4263C10.3689 23.0003 10.3689 22.3095 10.795 21.8835L21.884 10.7947C22.31 10.3687 23.0008 10.3687 23.4268 10.7947ZM23.6805 19.1749C24.1065 19.6009 24.1065 20.2916 23.6805 20.7177L20.7176 23.6805C20.2915 24.1065 19.6008 24.1065 19.1748 23.6805C18.7488 23.2544 18.7488 22.5637 19.1748 22.1377L22.1377 19.1749C22.5637 18.7488 23.2545 18.7488 23.6805 19.1749Z" fill="#C4C4C4"/>
</svg>