<svg width="42" height="14" viewBox="0 0 42 14" fill="none" xmlns="http://www.w3.org/2000/svg">
<path d="M5.40723 13H3.77246V2.16309L0.494141 3.36719V1.89062L5.15234 0.141602H5.40723V13ZM18.1953 7.54199C18.1953 9.44629 17.8701 10.8613 17.2197 11.7871C16.5693 12.7129 15.5527 13.1758 14.1699 13.1758C12.8047 13.1758 11.7939 12.7246 11.1377 11.8223C10.4814 10.9141 10.1416 9.56055 10.1182 7.76172V5.59082C10.1182 3.70996 10.4434 2.3125 11.0938 1.39844C11.7441 0.484375 12.7637 0.0273438 14.1523 0.0273438C15.5293 0.0273438 16.543 0.469727 17.1934 1.35449C17.8438 2.2334 18.1777 3.59277 18.1953 5.43262V7.54199ZM16.5693 5.31836C16.5693 3.94141 16.376 2.93945 15.9893 2.3125C15.6025 1.67969 14.9902 1.36328 14.1523 1.36328C13.3203 1.36328 12.7139 1.67676 12.333 2.30371C11.9521 2.93066 11.7559 3.89453 11.7441 5.19531V7.79688C11.7441 9.17969 11.9434 10.2021 12.3418 10.8643C12.7461 11.5205 13.3555 11.8486 14.1699 11.8486C14.9727 11.8486 15.5674 11.5381 15.9541 10.917C16.3467 10.2959 16.5518 9.31738 16.5693 7.98145V5.31836ZM28.3027 7.54199C28.3027 9.44629 27.9775 10.8613 27.3271 11.7871C26.6768 12.7129 25.6602 13.1758 24.2773 13.1758C22.9121 13.1758 21.9014 12.7246 21.2451 11.8223C20.5889 10.9141 20.249 9.56055 20.2256 7.76172V5.59082C20.2256 3.70996 20.5508 2.3125 21.2012 1.39844C21.8516 0.484375 22.8711 0.0273438 24.2598 0.0273438C25.6367 0.0273438 26.6504 0.469727 27.3008 1.35449C27.9512 2.2334 28.2852 3.59277 28.3027 5.43262V7.54199ZM26.6768 5.31836C26.6768 3.94141 26.4834 2.93945 26.0967 2.3125C25.71 1.67969 25.0977 1.36328 24.2598 1.36328C23.4277 1.36328 22.8213 1.67676 22.4404 2.30371C22.0596 2.93066 21.8633 3.89453 21.8516 5.19531V7.79688C21.8516 9.17969 22.0508 10.2021 22.4492 10.8643C22.8535 11.5205 23.4629 11.8486 24.2773 11.8486C25.0801 11.8486 25.6748 11.5381 26.0615 10.917C26.4541 10.2959 26.6592 9.31738 26.6768 7.98145V5.31836ZM30.2451 2.66406C30.2451 1.89648 30.4883 1.26367 30.9746 0.765625C31.4668 0.267578 32.0967 0.0185547 32.8643 0.0185547C33.6436 0.0185547 34.2734 0.270508 34.7539 0.774414C35.2402 1.27246 35.4834 1.91992 35.4834 2.7168V3.34082C35.4834 4.11426 35.2373 4.74707 34.7451 5.23926C34.2588 5.72559 33.6377 5.96875 32.8818 5.96875C32.1201 5.96875 31.4902 5.72559 30.9922 5.23926C30.4941 4.74707 30.2451 4.09375 30.2451 3.2793V2.66406ZM31.458 3.34082C31.458 3.79785 31.5869 4.17578 31.8447 4.47461C32.1025 4.76758 32.4482 4.91406 32.8818 4.91406C33.2979 4.91406 33.6318 4.77051 33.8838 4.4834C34.1416 4.19629 34.2705 3.80371 34.2705 3.30566V2.66406C34.2705 2.20703 34.1445 1.8291 33.8926 1.53027C33.6406 1.23145 33.2979 1.08203 32.8643 1.08203C32.4307 1.08203 32.0879 1.23145 31.8359 1.53027C31.584 1.8291 31.458 2.21875 31.458 2.69922V3.34082ZM36.4766 9.8623C36.4766 9.09473 36.7197 8.46484 37.2061 7.97266C37.6982 7.47461 38.3281 7.22559 39.0957 7.22559C39.8633 7.22559 40.4932 7.47168 40.9854 7.96387C41.4775 8.45605 41.7236 9.10938 41.7236 9.92383V10.5479C41.7236 11.3154 41.4775 11.9482 40.9854 12.4463C40.499 12.9385 39.875 13.1846 39.1133 13.1846C38.3516 13.1846 37.7217 12.9414 37.2236 12.4551C36.7256 11.9629 36.4766 11.3096 36.4766 10.4951V9.8623ZM37.6895 10.5479C37.6895 11.0107 37.8184 11.3916 38.0762 11.6904C38.334 11.9834 38.6797 12.1299 39.1133 12.1299C39.5352 12.1299 39.8721 11.9863 40.124 11.6992C40.376 11.4062 40.502 11.0107 40.502 10.5127V9.8623C40.502 9.39941 40.373 9.02148 40.1152 8.72852C39.8633 8.43555 39.5234 8.28906 39.0957 8.28906C38.6797 8.28906 38.3398 8.43555 38.0762 8.72852C37.8184 9.01562 37.6895 9.40527 37.6895 9.89746V10.5479ZM33.251 12.0332L32.3281 11.4531L38.5771 1.45117L39.5 2.03125L33.251 12.0332Z" fill="#007079" fill-opacity="0.6"/>
</svg>
