<svg width="20" height="20" viewBox="0 0 20 20" fill="none" xmlns="http://www.w3.org/2000/svg">
<path d="M0.5 18.5L0.5 3.99993C0.5 2.06693 2.067 0.499931 4 0.499931H16C17.933 0.499931 19.5 2.06693 19.5 3.99993V18.5H0.5Z" fill="#FBC913" stroke="#FBC913"/>
<path fill-rule="evenodd" clip-rule="evenodd" d="M5 6.11111L5 13.8889C5 14.5 5.5 15 6.11111 15H13.8889C14.5 15 15 14.5 15 13.8889V6.11111C15 5.5 14.5 5 13.8889 5L6.11111 5C5.5 5 5 5.5 5 6.11111ZM13.8889 6.66664V13.3333C13.8889 13.6389 13.6389 13.8889 13.3333 13.8889H6.66666C6.3611 13.8889 6.1111 13.6389 6.1111 13.3333V6.66664C6.1111 6.36108 6.3611 6.11108 6.66666 6.11108H13.3333C13.6389 6.11108 13.8889 6.36108 13.8889 6.66664Z" fill="#272738"/>
</svg>
