<svg width="18" height="18" viewBox="0 0 18 18" fill="none" xmlns="http://www.w3.org/2000/svg">
<path fill-rule="evenodd" clip-rule="evenodd" d="M9 2.63876L7.99457 5.87441C7.67196 6.91262 6.74671 7.61554 5.70272 7.61554H2.44908L5.08133 9.61528C5.92593 10.2569 6.27935 11.3943 5.95674 12.4325L4.95131 15.6681L7.58356 13.6684C8.42816 13.0267 9.57184 13.0267 10.4164 13.6684L13.0487 15.6681L12.0433 12.4325C11.7207 11.3943 12.0741 10.2569 12.9187 9.61528L15.5509 7.61554H12.2973C11.2533 7.61554 10.328 6.91262 10.0054 5.87441L9 2.63876ZM9.91674 0.696452C9.62819 -0.232151 8.37181 -0.23215 8.08326 0.696453L6.61946 5.40721C6.49042 5.82249 6.12032 6.10366 5.70272 6.10366H0.965764C0.0319955 6.10366 -0.356246 7.35309 0.399188 7.927L4.23147 10.8384C4.56931 11.0951 4.71067 11.55 4.58163 11.9653L3.11783 16.6761C2.82928 17.6047 3.84571 18.3768 4.60115 17.8029L8.43342 14.8915C8.77127 14.6349 9.22873 14.6349 9.56658 14.8915L13.3989 17.8029C14.1543 18.3768 15.1707 17.6047 14.8822 16.676L13.4184 11.9653C13.2893 11.55 13.4307 11.0951 13.7685 10.8384L17.6008 7.927C18.3562 7.35309 17.968 6.10366 17.0342 6.10366H12.2973C11.8797 6.10366 11.5096 5.82249 11.3805 5.40721L9.91674 0.696452Z" fill="#272738"/>
<path d="M10.5 6L9.5 2.5L8.5 1.5L7 6.5L1.5 7L5 10.5V13L4.5 16.5L9.5 14L13.5 16L13 13.5V10.5L16.5 7.5L14 7L10.5 6Z" fill="#272738"/>
</svg>
