<svg width="88" height="35" viewBox="0 0 88 35" fill="none" xmlns="http://www.w3.org/2000/svg">
<path fill-rule="evenodd" clip-rule="evenodd" d="M65.8173 6.3356L65.8175 14.3395C65.8173 14.5767 65.9355 14.7959 66.1398 14.9142L73.0342 18.9097C73.3266 19.0792 73.6996 18.8669 73.6998 18.5272V10.5236C73.7001 10.2863 73.5743 10.0672 73.3699 9.94864L66.4757 5.95333C66.183 5.78382 65.8177 5.99615 65.8173 6.3356ZM87.0524 0.0857283L77.1267 5.83812C76.8327 6.00851 76.6515 6.3239 76.6519 6.66534V18.1884C76.6524 18.6775 77.1893 18.983 77.6103 18.7389L87.5362 12.9869C87.8302 12.8163 88.0002 12.5009 87.9998 12.1595L88 0.636402C87.9996 0.147307 87.4736 -0.158157 87.0524 0.0857283ZM73.4366 24.5937L70.6782 26.1925C70.5966 26.24 70.5461 26.3276 70.5461 26.4225L70.5459 29.6246C70.5459 29.7608 70.6955 29.8455 70.8125 29.7778L73.5708 28.1791C73.6527 28.1319 73.7001 28.0441 73.6998 27.9494V24.7469C73.6998 24.6111 73.5535 24.5262 73.4366 24.5937ZM71.829 21.639L67.698 19.2344C67.5756 19.1633 67.4247 19.1633 67.3022 19.2344L63.1713 21.639C62.996 21.741 62.996 21.9955 63.1713 22.0977L67.3022 24.5019C67.4247 24.5734 67.5756 24.5734 67.698 24.5019L71.829 22.0977C72.0043 21.9955 72.0043 21.741 71.829 21.639ZM78.4794 22.0725L80.3149 23.1408C80.4235 23.2041 80.5576 23.2041 80.6664 23.1408L82.5017 22.0725C82.6575 21.9816 82.6575 21.7554 82.5017 21.6646L80.6664 20.5964C80.5576 20.5331 80.4235 20.5331 80.3149 20.5964L78.4794 21.6646C78.3236 21.7554 78.3236 21.9816 78.4794 22.0725ZM77.003 24.6436L78.8403 25.7083C78.9491 25.7714 79.0163 25.8884 79.0163 26.0149L79.0141 28.1478C79.0138 28.3288 78.819 28.442 78.663 28.3517L76.8257 27.287C76.7169 27.2239 76.6522 27.1065 76.6522 26.9805L76.6519 24.8475C76.6519 24.6668 76.847 24.5531 77.003 24.6436ZM58.3147 22.536C58.2417 22.3524 58.0866 22.2855 57.9132 22.3892C57.7399 22.493 54.4822 24.4456 54.4822 24.4456V22.6461C54.4822 22.4442 54.3543 22.3707 54.1719 22.4442L53.1133 22.8298C52.9674 22.8847 52.9126 22.9949 52.9126 23.1419V31.0528C52.9126 31.2181 53.022 31.328 53.1864 31.328H54.2084C54.3725 31.328 54.4822 31.2181 54.4822 31.0528V26.2073C54.4822 26.2073 58.3233 23.8223 58.4791 23.7287C58.6346 23.6349 58.7143 23.5555 58.6432 23.3798C58.5655 23.1871 58.3147 22.536 58.3147 22.536ZM1.73374 25.8754C2.0804 24.6087 3.06618 23.8375 4.45326 23.8375C5.96803 23.8375 6.77083 24.7372 6.8439 25.8754H1.73374ZM8.50501 26.3528C8.50501 24.1496 7.00823 22.2952 4.50789 22.2952C2.04398 22.2952 0 24.0764 0 26.9769C0 29.6208 1.71553 31.5483 4.59916 31.5483C5.91318 31.5483 7.22742 31.0894 8.21298 30.2081C8.34068 30.098 8.34068 29.9512 8.2494 29.8226L7.75662 29.0516C7.66535 28.9048 7.51944 28.8865 7.37354 28.9967C6.47902 29.6575 5.56652 29.9879 4.59916 29.9879C2.75594 29.9879 1.75195 28.7762 1.62425 27.2524H8.23492C8.40408 27.2524 8.50501 27.1292 8.50501 26.9807V26.3528ZM14.2622 29.9879C12.711 29.9879 11.3786 28.9232 11.3786 26.9034C11.3786 24.8839 12.711 23.8375 14.2622 23.8375C15.8864 23.8375 17.1458 24.8839 17.1458 26.9034C17.1458 28.9415 15.8864 29.9879 14.2622 29.9879ZM17.4014 35H18.4234C18.5875 35 18.697 34.8899 18.697 34.7246V22.6442C18.697 22.4422 18.5693 22.3687 18.3686 22.4422L17.3284 22.828C17.1825 22.883 17.1274 22.9931 17.1274 23.1401V23.5255C16.5618 22.7545 15.4483 22.2952 14.244 22.2952C11.8529 22.2952 9.77251 24.0947 9.77251 26.9218C9.77251 29.4189 11.3786 31.5483 14.1527 31.5483C15.4119 31.5483 16.6164 30.9793 17.1274 30.3368V34.7246C17.1274 34.8899 17.2371 35 17.4014 35ZM23.896 31.5483C24.845 31.5483 25.8856 31.2362 26.5607 30.245V31.0528C26.5607 31.2179 26.6702 31.328 26.8345 31.328H27.8565C28.0209 31.328 28.1301 31.2179 28.1301 31.0528V22.6625C28.1301 22.4422 28.0024 22.3687 27.8199 22.4422L26.7615 22.828C26.6156 22.883 26.5607 22.9931 26.5607 23.1401V27.5462C26.5607 29.1068 25.5569 29.9879 24.1881 29.9879C22.8376 29.9879 21.9251 29.1251 21.9251 27.5462V22.6442C21.9251 22.4422 21.7972 22.3687 21.6149 22.4422L20.5565 22.828C20.4101 22.883 20.3553 22.9931 20.3553 23.1401V27.6011C20.3553 30.2081 21.9251 31.5483 23.896 31.5483ZM30.2654 21.506L31.3788 21.1387C31.5612 21.0835 31.6342 20.9917 31.6342 20.8083V19.4681C31.6342 19.3028 31.5065 19.1744 31.3058 19.2479L30.2105 19.6518C30.0464 19.7067 29.9551 19.7802 29.9551 19.9636V21.2488C29.9551 21.4508 30.0646 21.5792 30.2654 21.506ZM30.2836 31.328H31.3058C31.4699 31.328 31.5796 31.2179 31.5796 31.0528V22.6442C31.5796 22.4422 31.4517 22.3687 31.2694 22.4422L30.2105 22.828C30.0646 22.883 30.0098 22.9931 30.0098 23.1401V31.0528C30.0098 31.2179 30.1192 31.328 30.2836 31.328ZM33.7326 31.328H34.7546C34.9189 31.328 35.0284 31.2179 35.0284 31.0528V26.2976C35.0284 24.7372 36.0324 23.8559 37.4011 23.8559C38.7515 23.8559 39.664 24.7188 39.664 26.2976V31.0528C39.664 31.2179 39.7735 31.328 39.9378 31.328H40.96C41.1242 31.328 41.2339 31.2179 41.2339 31.0528V26.2426C41.2339 23.6356 39.664 22.2952 37.6931 22.2952C36.7442 22.2952 35.704 22.6073 35.0284 23.599V22.6442C35.0284 22.4422 34.9007 22.3687 34.7182 22.4422L33.6596 22.828C33.5137 22.883 33.459 22.9931 33.459 23.1401V31.0528C33.459 31.2179 33.5683 31.328 33.7326 31.328ZM47.0823 30.0062C45.2755 30.0062 44.1805 28.6477 44.1805 26.9218C44.1805 25.196 45.2755 23.8375 47.0823 23.8375C48.8707 23.8375 49.9657 25.196 49.9657 26.9218C49.9657 28.6477 48.8707 30.0062 47.0823 30.0062ZM47.0823 22.2952C44.4541 22.2952 42.5744 24.2598 42.5744 26.9218C42.5744 29.584 44.4541 31.5483 47.0823 31.5483C49.7103 31.5483 51.572 29.584 51.572 26.9218C51.572 24.2598 49.7103 22.2952 47.0823 22.2952Z" fill="#EB0037"/>
</svg>
