<svg width="48" height="48" viewBox="0 0 48 48" fill="none" xmlns="http://www.w3.org/2000/svg">
<path fill-rule="evenodd" clip-rule="evenodd" d="M8.33323 10.2045L8.33358 23.0959C8.33323 23.478 8.52484 23.831 8.85579 24.0216L20.0263 30.457C20.5002 30.73 21.1045 30.388 21.1049 29.8409V16.9499C21.1052 16.5677 20.9015 16.2147 20.5702 16.0238L9.40005 9.58875C8.92583 9.31573 8.33394 9.65771 8.33323 10.2045ZM42.7392 0.138079L26.6573 9.40318C26.1809 9.67762 25.8873 10.1856 25.888 10.7356V29.2953C25.8887 30.083 26.7586 30.575 27.4407 30.1819L43.5231 20.9175C43.9994 20.6427 44.2749 20.1347 44.2742 19.5847L44.2746 1.02502C44.2738 0.23726 43.4217 -0.254736 42.7392 0.138079ZM20.6783 39.6119L16.2091 42.1871C16.0768 42.2635 15.9951 42.4046 15.9951 42.5575L15.9947 47.7149C15.9947 47.9342 16.2372 48.0708 16.4266 47.9616L20.8958 45.3868C21.0284 45.3107 21.1052 45.1693 21.1049 45.0168V39.8586C21.1049 39.64 20.8678 39.5031 20.6783 39.6119ZM18.0736 34.853L11.3805 30.9799C11.1821 30.8655 10.9375 30.8655 10.7392 30.9799L4.04603 34.853C3.762 35.0172 3.762 35.4271 4.04603 35.5917L10.7392 39.464C10.9375 39.5792 11.1821 39.5792 11.3805 39.464L18.0736 35.5917C18.3577 35.4271 18.3577 35.0172 18.0736 34.853ZM28.8488 35.5512L31.8229 37.2717C31.9988 37.3737 32.216 37.3737 32.3923 37.2717L35.366 35.5512C35.6184 35.4047 35.6184 35.0403 35.366 34.8942L32.3923 33.1736C32.216 33.0716 31.9988 33.0716 31.8229 33.1736L28.8488 34.8942C28.5964 35.0403 28.5964 35.4047 28.8488 35.5512ZM26.4568 39.6922L29.4336 41.4071C29.6099 41.5088 29.7187 41.6972 29.7187 41.9009L29.7152 45.3363C29.7148 45.6278 29.3991 45.8102 29.1464 45.6648L26.1695 43.9499C25.9932 43.8483 25.8883 43.6591 25.8883 43.4562L25.888 40.0207C25.888 39.7296 26.204 39.5465 26.4568 39.6922Z" fill="#EB0037"/>
</svg>
