<?xml version="1.0" encoding="iso-8859-1"?>
<!-- Generator: Adobe Illustrator 19.0.0, SVG Export Plug-In . SVG Version: 6.00 Build 0)  -->
<svg version="1.1" id="Layer_1" xmlns="http://www.w3.org/2000/svg" xmlns:xlink="http://www.w3.org/1999/xlink" x="0px" y="0px"
	 viewBox="0 0 512 512" style="enable-background:new 0 0 512 512;" xml:space="preserve">
<path style="fill:#F2F2F2;" d="M157.458,42.308v99.144c0,42.472,34.43,76.902,76.902,76.902h43.28
	c42.472,0,76.902-34.43,76.902-76.902V42.308H157.458z"/>
<rect x="157.455" y="10.199" style="fill:#73C1DD;" width="197.079" height="32.109"/>
<g>
	<rect x="234.357" y="218.355" style="fill:#F2F2F2;" width="43.285" height="252.44"/>
	<rect x="181.219" y="470.795" style="fill:#F2F2F2;" width="149.571" height="31.001"/>
</g>
<path style="fill:#73C1DD;" d="M287.357,141.602c0,17.318-14.039,31.357-31.357,31.357s-31.357-14.039-31.357-31.357
	c0-26.12,31.357-56.113,31.357-56.113S287.357,115.483,287.357,141.602z"/>
<g>
	<path style="fill:#4D3D36;" d="M147.259,141.453c0,44.576,33.666,81.415,76.902,86.483v232.663h-42.947
		c-5.633,0-10.199,4.567-10.199,10.199v31.003c0,5.632,4.566,10.199,10.199,10.199h149.572c5.632,0,10.199-4.567,10.199-10.199
		v-31.001c0-5.632-4.567-10.199-10.199-10.199H287.84V227.937c43.236-5.068,76.901-41.908,76.901-86.483V10.199
		C364.741,4.567,360.174,0,354.542,0H157.458c-5.633,0-10.199,4.567-10.199,10.199V141.453z M167.657,20.398h176.685v11.711H167.657
		V20.398z M320.586,480.999v10.603H191.412v-10.603H320.586z M244.559,460.6V228.554h22.882V460.6H244.559z M344.342,141.453
		c0,36.78-29.922,66.702-66.702,66.702h-43.28c-36.78,0-66.703-29.922-66.703-66.702V52.508h176.685V141.453z"/>
	<path style="fill:#4D3D36;" d="M256,183.158c22.915,0,41.556-18.641,41.556-41.556c0-29.624-30.974-60.106-34.506-63.484
		c-3.943-3.773-10.156-3.771-14.099,0c-3.532,3.379-34.507,33.86-34.507,63.484C214.443,164.517,233.085,183.158,256,183.158z
		 M256,100.379c9.131,10.562,21.158,27.57,21.158,41.224c0,11.666-9.491,21.157-21.157,21.157c-11.666,0-21.158-9.491-21.158-21.157
		C234.841,127.947,246.871,110.938,256,100.379z"/>
	<path style="fill:#4D3D36;" d="M322.432,123.369c5.632,0,10.199-4.567,10.199-10.199V75.525c0-5.632-4.567-10.199-10.199-10.199
		c-5.632,0-10.199,4.567-10.199,10.199v37.644C312.233,118.801,316.799,123.369,322.432,123.369z"/>
	<path style="fill:#4D3D36;" d="M322.432,157.692c5.632,0,10.199-4.567,10.199-10.199v-3.322c0-5.632-4.567-10.199-10.199-10.199
		c-5.632,0-10.199,4.567-10.199,10.199v3.322C312.233,153.126,316.799,157.692,322.432,157.692z"/>
</g>
<g>
</g>
<g>
</g>
<g>
</g>
<g>
</g>
<g>
</g>
<g>
</g>
<g>
</g>
<g>
</g>
<g>
</g>
<g>
</g>
<g>
</g>
<g>
</g>
<g>
</g>
<g>
</g>
<g>
</g>
</svg>
