<svg width="20" height="20" viewBox="0 0 20 20" fill="none" xmlns="http://www.w3.org/2000/svg">
<rect x="20" width="20" height="20" rx="2" transform="rotate(90 20 0)" fill="current"/>
<path fill-rule="evenodd" clip-rule="evenodd" d="M4.44672 9.21924L1.54826 9.21924C1.30719 9.21924 1.11176 9.41466 1.11176 9.65573C1.11176 9.78379 1.16799 9.90538 1.26556 9.98831L5.3674 13.4749L9.46925 9.98831C9.56682 9.90538 9.62305 9.78379 9.62305 9.65573C9.62305 9.41466 9.42762 9.21924 9.18655 9.21924L6.66895 9.21924L6.66895 5.55469L4.44672 5.55469L4.44672 9.21924Z" fill="white"/>
<path fill-rule="evenodd" clip-rule="evenodd" d="M13.3295 10.9248L10.8096 10.9248C10.5685 10.9248 10.373 10.7293 10.373 10.4882C10.373 10.3601 10.4293 10.2385 10.5269 10.1555L14.6299 6.66797L18.7329 10.1555C18.8305 10.2385 18.8867 10.3601 18.8867 10.4882C18.8867 10.7293 18.6912 10.9248 18.4501 10.9248L15.5518 10.9248L15.5518 14.444L13.3295 14.444L13.3295 10.9248Z" fill="white"/>
</svg>
