<svg width="30" height="30" viewBox="0 0 30 30" fill="none" xmlns="http://www.w3.org/2000/svg">
<rect width="30" height="30" rx="3" transform="matrix(4.37114e-08 -1 -1 -4.37114e-08 30 30)" fill="#C05046"/>
<path fill-rule="evenodd" clip-rule="evenodd" d="M12.5005 15.0012L4.33517 15.0012C3.78288 15.0012 3.33517 15.449 3.33517 16.0012L3.33517 16.2888C3.33517 16.5822 3.46399 16.8607 3.68752 17.0507L14.3542 26.1174C14.7276 26.4348 15.2761 26.4348 15.6495 26.1174L26.3161 17.0507C26.5397 16.8607 26.6685 16.5822 26.6685 16.2888L26.6685 16.0012C26.6685 15.449 26.2208 15.0012 25.6685 15.0012L17.5005 15.0012L17.5005 11.002C17.5005 10.4497 17.9482 10.002 18.5005 10.002L30 10.002L30 5.00195L17.1902 5.00195C14.6002 5.00195 12.5005 7.10158 12.5005 9.69161L12.5005 15.0012Z" fill="white"/>
</svg>
