<svg width="30" height="30" viewBox="0 0 30 30" fill="none" xmlns="http://www.w3.org/2000/svg">
<rect width="30" height="30" rx="3" transform="matrix(-4.37114e-08 1 1 4.37114e-08 0 0)" fill="#C05046"/>
<path fill-rule="evenodd" clip-rule="evenodd" d="M17.4995 14.9988L25.6648 14.9988C26.2171 14.9988 26.6648 14.551 26.6648 13.9988L26.6648 13.7112C26.6648 13.4178 26.536 13.1393 26.3125 12.9493L15.6458 3.88259C15.2724 3.56518 14.7239 3.56518 14.3505 3.88259L3.68385 12.9493C3.46032 13.1393 3.3315 13.4178 3.3315 13.7112L3.3315 13.9988C3.3315 14.551 3.77922 14.9988 4.3315 14.9988L12.4995 14.9988L12.4995 18.998C12.4995 19.5503 12.0518 19.998 11.4995 19.998L-7.14835e-07 19.998L-9.33392e-07 24.998L12.8098 24.998C15.3998 24.998 17.4995 22.8984 17.4995 20.3084L17.4995 14.9988Z" fill="white"/>
</svg>
