<svg width="22" height="17" viewBox="0 0 22 17" fill="none" xmlns="http://www.w3.org/2000/svg">
<g filter="url(#filter0_d_3607_16725)">
<path d="M2.70703 6.00058C2.70703 3.07056 5.12191 0.695312 8.10081 0.695312H14.2094C14.3786 0.695312 14.5404 0.763106 14.6577 0.883059L19.0316 5.35864C19.382 5.7172 19.382 6.28395 19.0316 6.64251L14.6577 11.1181C14.5404 11.238 14.3786 11.3058 14.2094 11.3058L8.10081 11.3058C5.1219 11.3058 2.70703 8.93059 2.70703 6.00058Z" fill="white"/>
</g>
<path fill-rule="evenodd" clip-rule="evenodd" d="M2 6C2 2.68629 4.73111 0 8.10011 0H14.2087C14.5701 0 14.9158 0.14481 15.1662 0.401033L19.5401 4.87661C20.1533 5.5041 20.1533 6.4959 19.5401 7.12338L15.1662 11.599C14.9158 11.8552 14.5701 12 14.2087 12L8.1001 12C4.73111 12 2 9.31371 2 6ZM8.10011 1.38947C5.5113 1.38947 3.41266 3.45368 3.41266 6C3.41266 8.54632 5.5113 10.6105 8.1001 10.6105H14.1727L18.5216 6.16048C18.6092 6.07084 18.6092 5.92916 18.5216 5.83952L14.1727 1.38947H8.10011Z" fill="current"/>
<path fill-rule="evenodd" clip-rule="evenodd" d="M13.5654 2.98083C13.8412 3.25214 13.8412 3.69202 13.5654 3.96333L7.91476 9.52123C7.63892 9.79254 7.1917 9.79254 6.91586 9.52123C6.64002 9.24992 6.64002 8.81003 6.91586 8.53872L12.5665 2.98083C12.8423 2.70952 13.2896 2.70952 13.5654 2.98083Z" fill="#EE2348"/>
<defs>
<filter id="filter0_d_3607_16725" x="0.707031" y="0.695312" width="20.5879" height="15.6094" filterUnits="userSpaceOnUse" color-interpolation-filters="sRGB">
<feFlood flood-opacity="0" result="BackgroundImageFix"/>
<feColorMatrix in="SourceAlpha" type="matrix" values="0 0 0 0 0 0 0 0 0 0 0 0 0 0 0 0 0 0 127 0" result="hardAlpha"/>
<feOffset dy="3"/>
<feGaussianBlur stdDeviation="1"/>
<feComposite in2="hardAlpha" operator="out"/>
<feColorMatrix type="matrix" values="0 0 0 0 0 0 0 0 0 0 0 0 0 0 0 0 0 0 0.1 0"/>
<feBlend mode="normal" in2="BackgroundImageFix" result="effect1_dropShadow_3607_16725"/>
<feBlend mode="normal" in="SourceGraphic" in2="effect1_dropShadow_3607_16725" result="shape"/>
</filter>
</defs>
</svg>