<svg width="16" height="23" viewBox="0 0 16 23" fill="none" xmlns="http://www.w3.org/2000/svg">
<g filter="url(#filter0_d_7136_30782)">
<path d="M7.99942 0.707031C10.9294 0.707031 13.3047 3.12191 13.3047 6.10081L13.3047 12.2094C13.3047 12.3786 13.2369 12.5404 13.1169 12.6577L8.64136 17.0316C8.2828 17.382 7.71605 17.382 7.35749 17.0316L2.88191 12.6577C2.76196 12.5404 2.69416 12.3786 2.69416 12.2094L2.69416 6.10081C2.69416 3.1219 5.06941 0.707031 7.99942 0.707031Z" fill="current"/>
</g>
<path fill-rule="evenodd" clip-rule="evenodd" d="M8 -2.62268e-07C11.3137 -1.17422e-07 14 2.73111 14 6.10011L14 12.2087C14 12.5701 13.8552 12.9158 13.599 13.1662L9.12338 17.5401C8.4959 18.1533 7.5041 18.1533 6.87661 17.5401L2.40103 13.1662C2.14481 12.9158 2 12.5701 2 12.2087L2 6.1001C2 2.73111 4.68629 -4.07115e-07 8 -2.62268e-07ZM12.6105 6.10011C12.6105 3.5113 10.5463 1.41266 8 1.41266C5.45368 1.41266 3.38947 3.5113 3.38947 6.1001L3.38947 12.1727L7.83952 16.5216C7.92916 16.6092 8.07084 16.6092 8.16048 16.5216L12.6105 12.1727L12.6105 6.10011Z" fill="current"/>
<path fill-rule="evenodd" clip-rule="evenodd" d="M11.0192 11.5634C10.7479 11.8393 10.308 11.8393 10.0367 11.5634L4.47877 5.91281C4.20746 5.63697 4.20746 5.18975 4.47877 4.91391C4.75008 4.63807 5.18997 4.63807 5.46128 4.91391L11.0192 10.5645C11.2905 10.8404 11.2905 11.2876 11.0192 11.5634Z" fill="current"/>
<defs>
<filter id="filter0_d_7136_30782" x="0.693359" y="0.707031" width="14.6113" height="21.5859" filterUnits="userSpaceOnUse" color-interpolation-filters="sRGB">
<feFlood flood-opacity="0" result="BackgroundImageFix"/>
<feColorMatrix in="SourceAlpha" type="matrix" values="0 0 0 0 0 0 0 0 0 0 0 0 0 0 0 0 0 0 127 0" result="hardAlpha"/>
<feOffset dy="3"/>
<feGaussianBlur stdDeviation="1"/>
<feComposite in2="hardAlpha" operator="out"/>
<feColorMatrix type="matrix" values="0 0 0 0 0 0 0 0 0 0 0 0 0 0 0 0 0 0 0.1 0"/>
<feBlend mode="normal" in2="BackgroundImageFix" result="effect1_dropShadow_7136_30782"/>
<feBlend mode="normal" in="SourceGraphic" in2="effect1_dropShadow_7136_30782" result="shape"/>
</filter>
</defs>
</svg>
