<svg width="20" height="20" viewBox="0 0 20 20" fill="none" xmlns="http://www.w3.org/2000/svg">
<path d="M0 19L0 3.99993C0 1.79079 1.79086 -6.86646e-05 4 -6.86646e-05H16C18.2091 -6.86646e-05 20 1.79079 20 3.99993V19H0Z" fill="#069098"/>
<path fill-rule="evenodd" clip-rule="evenodd" d="M5 6.11111L5 13.8889C5 14.5 5.5 15 6.11111 15H13.8889C14.5 15 15 14.5 15 13.8889V6.11111C15 5.5 14.5 5 13.8889 5L6.11111 5C5.5 5 5 5.5 5 6.11111ZM13.8891 6.66656V13.3332C13.8891 13.6388 13.6391 13.8888 13.3335 13.8888H6.66688C6.36133 13.8888 6.11133 13.6388 6.11133 13.3332V6.66656C6.11133 6.361 6.36133 6.111 6.66688 6.111H13.3335C13.6391 6.111 13.8891 6.361 13.8891 6.66656Z" fill="white"/>
</svg>
