<svg width="20" height="20" viewBox="0 0 20 20" fill="none" xmlns="http://www.w3.org/2000/svg">
<path d="M0 19L0 3.99993C0 1.79079 1.79086 -6.86646e-05 4 -6.86646e-05H16C18.2091 -6.86646e-05 20 1.79079 20 3.99993V19H0Z" fill="#069098"/>
<path fill-rule="evenodd" clip-rule="evenodd" d="M5 6.11111L5 13.8889C5 14.5 5.5 15 6.11111 15H13.8889C14.5 15 15 14.5 15 13.8889V6.11111C15 5.5 14.5 5 13.8889 5L6.11111 5C5.5 5 5 5.5 5 6.11111ZM13.8889 6.66664V13.3333C13.8889 13.6389 13.6389 13.8889 13.3333 13.8889H6.66668C6.36112 13.8889 6.11112 13.6389 6.11112 13.3333V6.66664C6.11112 6.36108 6.36112 6.11108 6.66668 6.11108H13.3333C13.6389 6.11108 13.8889 6.36108 13.8889 6.66664Z" fill="white"/>
</svg>
