<svg width="88" height="22" viewBox="0 0 88 22" fill="none" xmlns="http://www.w3.org/2000/svg">
<path d="M5.87481 18.6291H15.3816C17.2771 18.6291 18.5867 17.6379 18.5867 16.4586V14.9392C18.5867 13.9119 18.0875 13.5718 16.9371 13.6948C11.8726 14.2881 3.29192 14.346 3.29192 16.8637C3.29192 17.7971 4.0733 18.6363 5.87481 18.6363V18.6291ZM5.78799 12.3202L16.7562 11.1409C18.3479 10.9817 18.4999 10.5476 18.4999 9.64323C18.4999 9.18019 17.9066 7.97195 15.4539 7.97195H8.21894V5.14307H15.4539C19.52 5.14307 21.9148 7.25568 21.9148 10.3016V16.3284C21.9148 19.7794 18.7748 21.335 15.4033 21.335H5.87481C2.45266 21.335 0 19.1645 0 16.8854C0 14.8379 2.27179 12.6892 5.78799 12.3202Z" fill="white"/>
<path d="M24.6008 21.1674V5.14912H28.0518V21.1674H24.6008ZM26.3733 3.63701C26.1238 3.6457 25.875 3.605 25.6412 3.51724C25.4074 3.42948 25.1933 3.2964 25.0111 3.12564C24.8289 2.95488 24.6822 2.7498 24.5795 2.52219C24.4768 2.29458 24.4201 2.04892 24.4127 1.79932C24.4549 1.3084 24.6797 0.851168 25.0427 0.518008C25.4058 0.184848 25.8806 0 26.3733 0C26.8661 0 27.3409 0.184848 27.7039 0.518008C28.067 0.851168 28.2918 1.3084 28.334 1.79932C28.3265 2.04892 28.2698 2.29458 28.1671 2.52219C28.0644 2.7498 27.9178 2.95488 27.7356 3.12564C27.5534 3.2964 27.3393 3.42948 27.1055 3.51724C26.8717 3.605 26.6229 3.6457 26.3733 3.63701Z" fill="white"/>
<path d="M50.0537 9.84119C50.0537 8.91511 48.8671 7.88775 46.9716 7.88775H37.4648C35.5692 7.88775 34.3827 8.91511 34.3827 9.84119V16.6059C34.3827 17.503 35.5331 18.4364 37.4648 18.4364H46.9716C48.9033 18.4364 50.0537 17.503 50.0537 16.6059V9.84119ZM46.9716 21.3448H37.4648C32.5233 21.3448 30.9967 18.2048 30.9967 16.6204V0.211426H34.3827V3.10542C34.3827 4.00256 35.5331 5.12398 37.3418 5.12398H46.9716C50.4878 5.12398 53.4396 6.95443 53.4396 9.81225V16.6059C53.4396 18.1904 51.9131 21.3303 46.9716 21.3303V21.3448Z" fill="white"/>
<path d="M71.6842 7.85554H62.1702C60.2746 7.85554 58.9723 8.84674 58.9723 10.026V11.5454C58.9723 12.5728 59.4715 12.9128 60.6219 12.7898C65.6864 12.1965 74.2598 12.1387 74.2598 9.62088C74.2598 8.68757 73.4857 7.84831 71.6842 7.84831V7.85554ZM71.7782 14.1645L60.7738 15.3438C59.1894 15.5029 59.0374 15.937 59.0374 16.8342C59.0374 17.3044 59.6235 18.5127 62.0834 18.5127H69.5788V21.3416H62.1412C58.068 21.3416 55.6804 19.2289 55.6804 16.183V10.1563C55.6804 6.70518 58.8132 5.14966 62.1919 5.14966H71.6842C75.0991 5.14966 77.559 7.32015 77.559 9.59194C77.559 11.6467 75.2872 13.7882 71.771 14.1645H71.7782Z" fill="white"/>
<path d="M79.4948 21.3376V0.211426H82.8808V21.3376H79.4948Z" fill="white"/>
<path d="M86.2419 0.388521C85.9878 0.388972 85.7382 0.456346 85.5184 0.583865C85.2836 0.703826 85.0916 0.893325 84.9685 1.12649C84.8385 1.34561 84.7686 1.59519 84.766 1.84999C84.7664 2.10412 84.8338 2.35366 84.9613 2.57349C85.0886 2.80345 85.2795 2.99185 85.5112 3.11611C85.731 3.24363 85.9805 3.311 86.2347 3.31146C86.4885 3.30871 86.7374 3.24149 86.9582 3.11611C87.1862 2.98946 87.3741 2.80149 87.5008 2.57349C87.6283 2.35366 87.6957 2.10412 87.6961 1.84999C87.6935 1.59519 87.6236 1.34561 87.4935 1.12649C87.3705 0.893325 87.1785 0.703826 86.9437 0.583865C86.7239 0.456346 86.4743 0.388972 86.2202 0.388521H86.2419ZM86.2419 0.0991211C86.5432 0.09979 86.8395 0.176963 87.1029 0.323406C87.3863 0.47044 87.6184 0.700018 87.7685 0.981789C87.9189 1.25175 87.9986 1.55541 88 1.86446C88.0013 2.17157 87.9214 2.47356 87.7685 2.73989C87.6197 3.01776 87.3935 3.24648 87.1173 3.39827C86.8491 3.5498 86.5463 3.62943 86.2383 3.62943C85.9302 3.62943 85.6274 3.5498 85.3592 3.39827C85.0847 3.24421 84.8591 3.01607 84.7081 2.73989C84.5538 2.47263 84.4725 2.16945 84.4725 1.86084C84.4725 1.55223 84.5538 1.24905 84.7081 0.981789C84.8575 0.699463 85.0898 0.469688 85.3737 0.323406C85.6397 0.176956 85.9383 0.0998243 86.2419 0.0991211Z" fill="white"/>
<path d="M85.8347 1.74619H86.2037C86.3319 1.75803 86.4607 1.73025 86.5727 1.6666C86.6269 1.625 86.6626 1.56376 86.672 1.49609C86.6815 1.42842 86.664 1.35974 86.6233 1.30485C86.5938 1.25624 86.5475 1.22019 86.4931 1.20356C86.392 1.17472 86.287 1.1625 86.182 1.16739H85.8347V1.74619ZM85.5236 2.80973V0.914162H86.182C86.3452 0.905826 86.5087 0.922912 86.6667 0.964807C86.7641 0.996982 86.8481 1.0606 86.9055 1.14568C86.9622 1.22883 86.9925 1.32719 86.9923 1.42785C86.9927 1.56261 86.9408 1.69227 86.8476 1.7896C86.7405 1.89393 86.599 1.95566 86.4497 1.96324C86.5095 1.98492 86.5638 2.0195 86.6088 2.06453C86.7175 2.17829 86.8122 2.30459 86.891 2.44074L87.1225 2.80973H86.7463L86.5799 2.51309C86.5026 2.34717 86.3946 2.19742 86.2616 2.07176C86.1899 2.02157 86.1027 1.9985 86.0156 2.00665H85.8347V2.80973H85.5236Z" fill="white"/>
</svg>
