<svg width="14" height="14" viewBox="0 0 14 14" fill="none" xmlns="http://www.w3.org/2000/svg">
<path fill-rule="evenodd" clip-rule="evenodd" d="M1.75 1.75V12.25H12.25V1.75H1.75ZM1.16667 0C0.522334 0 0 0.522334 0 1.16667V12.8333C0 13.4777 0.522334 14 1.16667 14H12.8333C13.4777 14 14 13.4777 14 12.8333V1.16667C14 0.522334 13.4777 0 12.8333 0H1.16667Z" fill="white"/>
<path fill-rule="evenodd" clip-rule="evenodd" d="M10.5 7H7V10.5H10.5V7ZM7 5.83333C6.35567 5.83333 5.83333 6.35567 5.83333 7V10.5C5.83333 11.1443 6.35567 11.6667 7 11.6667H10.5C11.1443 11.6667 11.6667 11.1443 11.6667 10.5V7C11.6667 6.35567 11.1443 5.83333 10.5 5.83333H7Z" fill="white"/>
</svg>
