<svg width="12" height="12" viewBox="0 0 12 12" fill="none" xmlns="http://www.w3.org/2000/svg">
<path fill-rule="evenodd" clip-rule="evenodd" d="M1.5 1.5V10.5H10.5V1.5H1.5ZM1 0C0.447715 0 0 0.447715 0 1V11C0 11.5523 0.447715 12 1 12H11C11.5523 12 12 11.5523 12 11V1C12 0.447715 11.5523 0 11 0H1Z" fill="#4F4F4F"/>
<path fill-rule="evenodd" clip-rule="evenodd" d="M9 6H6V9H9V6ZM6 5C5.44772 5 5 5.44772 5 6V9C5 9.55228 5.44772 10 6 10H9C9.55228 10 10 9.55228 10 9V6C10 5.44772 9.55228 5 9 5H6Z" fill="#4F4F4F"/>
</svg>
