<svg width="10" height="12" viewBox="0 0 10 12" fill="none" xmlns="http://www.w3.org/2000/svg">
<path fill-rule="evenodd" clip-rule="evenodd" d="M8.75 0C9.44036 0 10 0.421376 10 0.94117V5.08226C10 5.60205 9.44036 6.02343 8.75 6.02343H5.9375C5.9375 6.02349 5.9375 6.02336 5.9375 6.02343L5.9375 9.50904L8.06606 7.79954C8.42018 7.51513 9.01347 7.50073 9.3912 7.76736C9.76892 8.03399 9.78806 8.4807 9.43394 8.7651L5.69269 11.7698C5.52125 11.9112 5.27439 12 5 12C4.72571 12 4.47894 11.9113 4.3075 11.7699L0.566059 8.7651C0.211935 8.48069 0.23107 8.03399 0.608799 7.76736C0.986528 7.50073 1.57981 7.51513 1.93394 7.79954L4.0625 9.50904L4.0625 6.02362C4.0625 6.02356 4.0625 6.02369 4.0625 6.02362L1.25 6.02343C0.559644 6.02343 0 5.60205 0 5.08226V0.941171C0 0.421377 0.559645 0 1.25 0H8.75ZM1.875 1.41175L8.125 1.41175V4.61167H1.875L1.875 1.41175Z" fill="#4F4F4F"/>
</svg>
