<svg width="16" height="12" viewBox="0 0 16 12" fill="none" xmlns="http://www.w3.org/2000/svg">
<path d="M6.66667 0C6.29846 0 6 0.298482 6 0.666667V3.33333C6 3.70152 6.29846 4 6.66667 4H7.66667V5.66667H2C1.81592 5.66667 1.66667 5.8159 1.66667 6V8H0.666667C0.298462 8 0 8.29848 0 8.66667V11.3333C0 11.7015 0.298462 12 0.666667 12H3.33333C3.70154 12 4 11.7015 4 11.3333V8.66667C4 8.29848 3.70154 8 3.33333 8H2.33333V6.33333H7.66667V8H6.66667C6.29846 8 6 8.29848 6 8.66667V11.3333C6 11.7015 6.29846 12 6.66667 12H9.33333C9.70154 12 10 11.7015 10 11.3333V8.66667C10 8.29848 9.70154 8 9.33333 8H8.33333V6.33333H13.6666V8H12.6667C12.2985 8 12 8.29848 12 8.66667V11.3333C12 11.7015 12.2985 12 12.6667 12H15.3333C15.7015 12 16 11.7015 16 11.3333V8.66667C16 8.29848 15.7015 8 15.3333 8H14.3333V6C14.3333 5.9116 14.2982 5.8268 14.2357 5.7643C14.1731 5.70178 14.0884 5.66667 14 5.66667H8.33333V4H9.33333C9.70154 4 10 3.70152 10 3.33333V0.666667C10 0.298482 9.70154 0 9.33333 0H6.66667Z" fill="#4F4F4F"/>
</svg>
