<svg width="24" height="24" viewBox="0 0 24 24" fill="none" xmlns="http://www.w3.org/2000/svg">
<path fill-rule="evenodd" clip-rule="evenodd" d="M0 0.862275C0 0.386054 0.316034 0 0.705882 0H23.2941C23.684 0 24 0.386054 24 0.862275C24 1.3385 23.684 1.72455 23.2941 1.72455H0.705882C0.316034 1.72455 0 1.3385 0 0.862275Z" fill="#272738"/>
<path fill-rule="evenodd" clip-rule="evenodd" d="M15.0586 23.1377C15.0586 22.6614 15.3746 22.2754 15.7645 22.2754L23.2939 22.2754C23.6837 22.2754 23.9998 22.6614 23.9998 23.1377C23.9998 23.6139 23.6837 23.9999 23.2939 23.9999L15.7645 23.9999C15.3746 23.9999 15.0586 23.6139 15.0586 23.1377Z" fill="#272738"/>
<path fill-rule="evenodd" clip-rule="evenodd" d="M7.52979 13.1137C7.52979 12.6375 7.84582 12.2515 8.23567 12.2515L23.2945 12.2515C23.6843 12.2515 24.0004 12.6375 24.0004 13.1137C24.0004 13.59 23.6843 13.976 23.2945 13.976L8.23567 13.976C7.84582 13.976 7.52979 13.59 7.52979 13.1137Z" fill="#272738"/>
</svg>
