<svg width="50" height="12" viewBox="0 0 50 12" fill="none" xmlns="http://www.w3.org/2000/svg">
<path d="M3.3024 10.472H8.64643C9.71198 10.472 10.4481 9.91481 10.4481 9.25189V8.39782C10.4481 7.82031 10.1675 7.62916 9.52083 7.6983C6.67394 8.03179 1.85048 8.06433 1.85048 9.47964C1.85048 10.0043 2.28972 10.4761 3.3024 10.4761V10.472ZM3.25359 6.92557L9.41916 6.26265C10.3139 6.17318 10.3993 5.92916 10.3993 5.42078C10.3993 5.1605 10.0658 4.48131 8.6871 4.48131H4.6201V2.89111H8.6871C10.9727 2.89111 12.3189 4.07868 12.3189 5.79088V9.17869C12.3189 11.1186 10.5538 11.993 8.65863 11.993H3.3024C1.37871 11.993 0 10.7729 0 9.49184C0 8.34088 1.27704 7.13299 3.25359 6.92557Z" fill="#004676"/>
<path d="M13.8288 11.8988V2.89447H15.7688V11.8988H13.8288ZM14.8252 2.04447C14.6849 2.04935 14.5451 2.02647 14.4136 1.97714C14.2822 1.92781 14.1619 1.853 14.0594 1.75701C13.957 1.66102 13.8746 1.54574 13.8169 1.41779C13.7591 1.28985 13.7273 1.15176 13.7231 1.01145C13.7468 0.735487 13.8732 0.478466 14.0772 0.291187C14.2813 0.103908 14.5482 0 14.8252 0C15.1022 0 15.3691 0.103908 15.5732 0.291187C15.7772 0.478466 15.9036 0.735487 15.9274 1.01145C15.9232 1.15176 15.8913 1.28985 15.8336 1.41779C15.7758 1.54574 15.6934 1.66102 15.591 1.75701C15.4886 1.853 15.3682 1.92781 15.2368 1.97714C15.1054 2.02647 14.9655 2.04935 14.8252 2.04447Z" fill="#004676"/>
<path d="M28.1366 5.53206C28.1366 5.01149 27.4696 4.43398 26.4041 4.43398H21.0601C19.9945 4.43398 19.3275 5.01149 19.3275 5.53206V9.3347C19.3275 9.83901 19.9742 10.3637 21.0601 10.3637H26.4041C27.49 10.3637 28.1366 9.83901 28.1366 9.3347V5.53206ZM26.4041 11.9986H21.0601C18.2823 11.9986 17.4242 10.2335 17.4242 9.34284V0.118896H19.3275V1.74569C19.3275 2.25 19.9742 2.88038 20.9909 2.88038H26.4041C28.3806 2.88038 30.04 3.90933 30.04 5.5158V9.3347C30.04 10.2254 29.1818 11.9904 26.4041 11.9904V11.9986Z" fill="#004676"/>
<path d="M40.2958 4.41583H34.9477C33.8821 4.41583 33.15 4.97301 33.15 5.63593V6.49C33.15 7.06751 33.4307 7.25866 34.0773 7.18952C36.9242 6.85603 41.7436 6.82349 41.7436 5.40818C41.7436 4.88354 41.3084 4.41176 40.2958 4.41176V4.41583ZM40.3486 7.96225L34.1627 8.62517C33.2721 8.71464 33.1866 8.95866 33.1866 9.46297C33.1866 9.72732 33.5161 10.4065 34.8988 10.4065H39.1123V11.9967H34.9314C32.6417 11.9967 31.2996 10.8091 31.2996 9.09694V5.70913C31.2996 3.76918 33.0606 2.89478 34.9599 2.89478H40.2958C42.2154 2.89478 43.5981 4.11487 43.5981 5.39191C43.5981 6.54694 42.3211 7.75077 40.3446 7.96225H40.3486Z" fill="#004676"/>
<path d="M44.6863 11.9945V0.118896H46.5897V11.9945H44.6863Z" fill="#004676"/>
<path d="M48.479 0.218344C48.3362 0.218597 48.1959 0.25647 48.0723 0.328153C47.9404 0.395586 47.8324 0.502109 47.7633 0.633177C47.6901 0.756352 47.6509 0.896648 47.6494 1.03988C47.6496 1.18273 47.6875 1.323 47.7592 1.44658C47.8308 1.57585 47.9381 1.68175 48.0683 1.7516C48.1918 1.82328 48.3321 1.86116 48.475 1.86141C48.6177 1.85986 48.7576 1.82208 48.8817 1.7516C49.0098 1.68041 49.1155 1.57474 49.1867 1.44658C49.2584 1.323 49.2963 1.18273 49.2965 1.03988C49.295 0.896648 49.2557 0.756352 49.1826 0.633177C49.1135 0.502109 49.0055 0.395586 48.8735 0.328153C48.75 0.25647 48.6097 0.218597 48.4668 0.218344H48.479ZM48.479 0.0556641C48.6484 0.0560401 48.815 0.0994211 48.963 0.181741C49.1223 0.264393 49.2528 0.393445 49.3372 0.551837C49.4218 0.70359 49.4665 0.874285 49.4673 1.04801C49.468 1.22064 49.4231 1.3904 49.3372 1.54012C49.2536 1.69631 49.1264 1.82488 48.9712 1.91021C48.8204 1.99539 48.6502 2.04015 48.477 2.04015C48.3039 2.04015 48.1336 1.99539 47.9829 1.91021C47.8286 1.82361 47.7017 1.69536 47.6168 1.54012C47.5301 1.38988 47.4844 1.21946 47.4844 1.04598C47.4844 0.872498 47.5301 0.702075 47.6168 0.551837C47.7008 0.393133 47.8314 0.26397 47.991 0.181741C48.1405 0.0994173 48.3084 0.0560594 48.479 0.0556641Z" fill="#004676"/>
<path d="M48.2501 0.981554H48.4576C48.5296 0.988211 48.602 0.972597 48.665 0.936817C48.6954 0.913431 48.7155 0.879008 48.7208 0.840969C48.7262 0.80293 48.7163 0.764321 48.6934 0.733467C48.6769 0.706142 48.6508 0.685875 48.6202 0.676529C48.5634 0.660317 48.5044 0.653449 48.4454 0.656194H48.2501V0.981554ZM48.0753 1.5794V0.513849H48.4454C48.5371 0.509163 48.629 0.518768 48.7178 0.542318C48.7726 0.560405 48.8198 0.596168 48.8521 0.643993C48.8839 0.690735 48.901 0.746024 48.9009 0.802606C48.9011 0.878359 48.8719 0.951245 48.8195 1.00596C48.7593 1.0646 48.6798 1.0993 48.5958 1.10356C48.6295 1.11575 48.66 1.13519 48.6853 1.1605C48.7464 1.22445 48.7996 1.29545 48.8439 1.37199L48.9741 1.5794H48.7626L48.669 1.41265C48.6256 1.31939 48.5649 1.2352 48.4901 1.16457C48.4498 1.13636 48.4008 1.12338 48.3518 1.12797H48.2501V1.5794H48.0753Z" fill="#004676"/>
</svg>
