<svg width="10" height="10" viewBox="0 0 10 10" fill="none" xmlns="http://www.w3.org/2000/svg">
<path d="M1.3399 0.279606C1.04701 -0.0132868 0.572133 -0.0132868 0.27924 0.279606C-0.013653 0.5725 -0.013653 1.04737 0.27924 1.34027L3.93897 5L0.27924 8.65973C-0.013653 8.95263 -0.013653 9.4275 0.27924 9.7204C0.572133 10.0133 1.04701 10.0133 1.3399 9.7204L4.99963 6.06066L8.65937 9.7204C8.95226 10.0133 9.42714 10.0133 9.72003 9.7204C10.0129 9.4275 10.0129 8.95263 9.72003 8.65973L6.0603 5L9.72003 1.34027C10.0129 1.04737 10.0129 0.5725 9.72003 0.279606C9.42714 -0.0132868 8.95226 -0.0132868 8.65937 0.279606L4.99963 3.93934L1.3399 0.279606Z" fill="#4F4F4F"/>
</svg>
