<svg width="10" height="10" viewBox="0 0 10 10" fill="none" xmlns="http://www.w3.org/2000/svg">
<path d="M1.3399 0.279729C1.04701 -0.0131647 0.572133 -0.0131647 0.27924 0.279729C-0.013653 0.572622 -0.013653 1.0475 0.27924 1.34039L3.93897 5.00012L0.27924 8.65986C-0.013653 8.95275 -0.013653 9.42762 0.27924 9.72052C0.572133 10.0134 1.04701 10.0134 1.3399 9.72052L4.99963 6.06078L8.65937 9.72052C8.95226 10.0134 9.42714 10.0134 9.72003 9.72052C10.0129 9.42762 10.0129 8.95275 9.72003 8.65986L6.0603 5.00012L9.72003 1.34039C10.0129 1.0475 10.0129 0.572622 9.72003 0.279729C9.42714 -0.0131647 8.95226 -0.0131647 8.65937 0.279729L4.99963 3.93946L1.3399 0.279729Z" fill="#4F4F4F"/>
</svg>
