<svg width="18" height="19" viewBox="0 0 18 19" fill="none" xmlns="http://www.w3.org/2000/svg">
<path fill-rule="evenodd" clip-rule="evenodd" d="M4.5 8.92444L8.625 2.17444L12.75 8.92444H4.5ZM10.0725 7.42444L8.625 5.05444L7.17 7.42444H10.0725ZM12.75 10.4244C10.8825 10.4244 9.375 11.9319 9.375 13.7994C9.375 15.6669 10.8825 17.1744 12.75 17.1744C14.6175 17.1744 16.125 15.6669 16.125 13.7994C16.125 11.9319 14.6175 10.4244 12.75 10.4244ZM10.875 13.7994C10.875 14.8344 11.715 15.6744 12.75 15.6744C13.785 15.6744 14.625 14.8344 14.625 13.7994C14.625 12.7644 13.785 11.9244 12.75 11.9244C11.715 11.9244 10.875 12.7644 10.875 13.7994ZM1.875 16.7994H7.875V10.7994H1.875V16.7994ZM6.375 12.2994H3.375V15.2994H6.375V12.2994Z" fill="#007079"/>
</svg>
