<svg width="52" height="26" viewBox="0 0 52 26" fill="none" xmlns="http://www.w3.org/2000/svg">
<path d="M0 2C0 0.89543 0.895431 0 2 0H26V26H2C0.89543 26 0 25.1046 0 24V2Z" fill="#007079"/>
<path d="M26 0H50C51.1046 0 52 0.895431 52 2V24C52 25.1046 51.1046 26 50 26H26V0Z" fill="#015359"/>
<path d="M26 0V26" stroke="#015359" stroke-width="0.5"/>
<path d="M0.5 2C0.5 1.17157 1.17157 0.5 2 0.5H50C50.8284 0.5 51.5 1.17157 51.5 2V24C51.5 24.8284 50.8284 25.5 50 25.5H2C1.17157 25.5 0.5 24.8284 0.5 24V2Z" stroke="#015359"/>
<path fill-rule="evenodd" clip-rule="evenodd" d="M13 3C9.14 3 6 6.14 6 10C6 12.38 7.19 14.47 9 15.74V18C9 18.55 9.45 19 10 19H16C16.55 19 17 18.55 17 18V15.74C18.81 14.47 20 12.38 20 10C20 6.14 16.86 3 13 3ZM10 22C10 22.55 10.45 23 11 23H15C15.55 23 16 22.55 16 22V21H10V22ZM15 14.7L15.85 14.1C17.2 13.16 18 11.63 18 10C18 7.24 15.76 5 13 5C10.24 5 8 7.24 8 10C8 11.63 8.8 13.16 10.15 14.1L11 14.7V17H15V14.7Z" fill="white"/>
<path d="M36 17.5H42H42.5V14.5L45 12V7L41.5 3.5H37L33.5 7V12L36 14.5V17.5Z" fill="white"/>
<path fill-rule="evenodd" clip-rule="evenodd" d="M39 3C35.14 3 32 6.14 32 10C32 12.38 33.19 14.47 35 15.74V18C35 18.55 35.45 19 36 19H42C42.55 19 43 18.55 43 18V15.74C44.81 14.47 46 12.38 46 10C46 6.14 42.86 3 39 3ZM36 22C36 22.55 36.45 23 37 23H41C41.55 23 42 22.55 42 22V21H36V22ZM41 14.7L41.85 14.1C43.2 13.16 44 11.63 44 10C44 7.24 41.76 5 39 5C36.24 5 34 7.24 34 10C34 11.63 34.8 13.16 36.15 14.1L37 14.7V17H41V14.7Z" fill="white"/>
</svg>
