<svg width="10" height="12" viewBox="0 0 10 12" fill="none" xmlns="http://www.w3.org/2000/svg">
<path d="M1.72356 3.01953H8.12852C8.19635 3.01953 8.26352 3.03364 8.32619 3.06105C8.38885 3.08846 8.4458 3.12864 8.49376 3.17929C8.54172 3.22994 8.57977 3.29007 8.60573 3.35625C8.63169 3.42243 8.64505 3.49336 8.64505 3.56499V9.8159C8.64505 10.2499 8.48179 10.6661 8.19118 10.973C7.90058 11.2799 7.50644 11.4523 7.09546 11.4523H2.75662C2.34564 11.4523 1.9515 11.2799 1.66089 10.973C1.37029 10.6661 1.20703 10.2499 1.20703 9.8159V3.56499C1.20703 3.42032 1.26145 3.28158 1.35832 3.17929C1.45519 3.077 1.58657 3.01953 1.72356 3.01953Z" fill="#3D113F" stroke="#3D113F" stroke-miterlimit="10"/>
<path d="M0.515625 1.54688H9.48257" stroke="#3D113F" stroke-miterlimit="10" stroke-linecap="round"/>
<path d="M3.65535 0.414062H6.33097C6.52275 0.414063 6.70669 0.494517 6.8423 0.637726C6.97792 0.780936 7.05411 0.97517 7.05411 1.1777H2.92188C2.92187 1.07742 2.94058 0.978116 2.97692 0.885468C3.01326 0.792819 3.06653 0.708637 3.13368 0.637726C3.20083 0.566816 3.28055 0.510567 3.36828 0.472191C3.45602 0.433815 3.55005 0.414062 3.64502 0.414062H3.65535Z" fill="#3D113F" stroke="#3D113F" stroke-width="0.75" stroke-miterlimit="10" stroke-linecap="round"/>
<path d="M2.93359 9.48064V4.74609" stroke="white" stroke-width="0.5" stroke-miterlimit="10" stroke-linecap="round"/>
<path d="M5 9.48064V4.74609" stroke="white" stroke-width="0.5" stroke-miterlimit="10" stroke-linecap="round"/>
<path d="M7.05469 9.48064V4.74609" stroke="white" stroke-width="0.5" stroke-miterlimit="10" stroke-linecap="round"/>
</svg>
