<svg width="10" height="12" viewBox="0 0 10 12" fill="none" xmlns="http://www.w3.org/2000/svg">
<path d="M1.72551 3.02148H8.13047C8.1983 3.02148 8.26547 3.03559 8.32814 3.063C8.39081 3.09042 8.44775 3.13059 8.49571 3.18124C8.54368 3.23189 8.58172 3.29203 8.60768 3.3582C8.63364 3.42438 8.647 3.49531 8.647 3.56694V9.81785C8.647 10.2518 8.48374 10.6681 8.19314 10.9749C7.90253 11.2818 7.50839 11.4542 7.09741 11.4542H2.75857C2.3476 11.4542 1.95345 11.2818 1.66285 10.9749C1.37224 10.6681 1.20898 10.2518 1.20898 9.81785V3.56694C1.20898 3.42228 1.2634 3.28354 1.36027 3.18124C1.45714 3.07895 1.58852 3.02148 1.72551 3.02148V3.02148Z" stroke="#272738" stroke-miterlimit="10"/>
<path d="M0.516602 1.54883H9.48354" stroke="#272738" stroke-miterlimit="10" stroke-linecap="round"/>
<path d="M3.6573 0.414062H6.33292C6.52471 0.414063 6.70864 0.494517 6.84426 0.637726C6.97987 0.780936 7.05606 0.97517 7.05606 1.1777H2.92383C2.92383 1.07742 2.94253 0.978116 2.97887 0.885468C3.01522 0.792819 3.06848 0.708637 3.13563 0.637726C3.20278 0.566816 3.2825 0.510567 3.37023 0.472191C3.45797 0.433815 3.552 0.414062 3.64697 0.414062H3.6573Z" stroke="#272738" stroke-width="0.75" stroke-miterlimit="10" stroke-linecap="round"/>
<path d="M2.93359 9.47966V4.74512" stroke="#272738" stroke-width="0.5" stroke-miterlimit="10" stroke-linecap="round"/>
<path d="M5 9.47966V4.74512" stroke="#272738" stroke-width="0.5" stroke-miterlimit="10" stroke-linecap="round"/>
<path d="M7.05566 9.47966V4.74512" stroke="#272738" stroke-width="0.5" stroke-miterlimit="10" stroke-linecap="round"/>
</svg>
