<svg width="10" height="12" viewBox="0 0 10 12" fill="none" xmlns="http://www.w3.org/2000/svg">
<path d="M1.72551 3.02179H8.13047C8.1983 3.02179 8.26547 3.0359 8.32814 3.06331C8.39081 3.09072 8.44775 3.1309 8.49571 3.18155C8.54368 3.2322 8.58172 3.29233 8.60768 3.35851C8.63364 3.42469 8.647 3.49561 8.647 3.56724V9.81815C8.647 10.2521 8.48374 10.6684 8.19314 10.9752C7.90253 11.2821 7.50839 11.4545 7.09741 11.4545H2.75857C2.3476 11.4545 1.95345 11.2821 1.66285 10.9752C1.37224 10.6684 1.20898 10.2521 1.20898 9.81815V3.56724C1.20898 3.42258 1.2634 3.28384 1.36027 3.18155C1.45714 3.07926 1.58852 3.02179 1.72551 3.02179V3.02179Z" stroke="#4F4F4F" stroke-miterlimit="10"/>
<path d="M0.516602 1.54907H9.48354" stroke="#4F4F4F" stroke-miterlimit="10" stroke-linecap="round"/>
<path d="M3.6573 0.414551H6.33292C6.52471 0.414551 6.70864 0.495005 6.84426 0.638215C6.97987 0.781424 7.05606 0.975658 7.05606 1.17819H2.92383C2.92383 1.0779 2.94253 0.978605 2.97887 0.885956C3.01522 0.793307 3.06848 0.709125 3.13563 0.638215C3.20278 0.567304 3.2825 0.511055 3.37023 0.472679C3.45797 0.434303 3.552 0.414551 3.64697 0.414551H3.6573Z" stroke="#4F4F4F" stroke-width="0.75" stroke-miterlimit="10" stroke-linecap="round"/>
<path d="M2.93408 9.47997V4.74542" stroke="#4F4F4F" stroke-width="0.5" stroke-miterlimit="10" stroke-linecap="round"/>
<path d="M5 9.47997V4.74542" stroke="#4F4F4F" stroke-width="0.5" stroke-miterlimit="10" stroke-linecap="round"/>
<path d="M7.05566 9.47997V4.74542" stroke="#4F4F4F" stroke-width="0.5" stroke-miterlimit="10" stroke-linecap="round"/>
</svg>
