<svg width="12" height="12" viewBox="0 0 12 12" fill="none" xmlns="http://www.w3.org/2000/svg">
<path fill-rule="evenodd" clip-rule="evenodd" d="M1.89424 1.63636L6 6.64244L10.1058 1.63636H1.89424ZM0.315282 2.24447C-0.411581 1.35821 0.199004 0 1.32428 0H10.6757C11.801 0 12.4116 1.35822 11.6847 2.24447L7.009 7.94549C6.48103 8.58923 5.51897 8.58923 4.991 7.94549L0.315282 2.24447Z" fill="#4F4F4F"/>
<path fill-rule="evenodd" clip-rule="evenodd" d="M6 7.09091C6.43798 7.09091 6.79304 7.45722 6.79304 7.90909V11.1818C6.79304 11.6337 6.43798 12 6 12C5.56201 12 5.20695 11.6337 5.20695 11.1818V7.90909C5.20695 7.45722 5.56201 7.09091 6 7.09091Z" fill="#4F4F4F"/>
</svg>
