<svg width="12" height="12" viewBox="0 0 12 12" fill="none" xmlns="http://www.w3.org/2000/svg">
<path fill-rule="evenodd" clip-rule="evenodd" d="M6.0013 0.166992C2.7813 0.166992 0.167969 2.78033 0.167969 6.00033C0.167969 9.22033 2.7813 11.8337 6.0013 11.8337C9.2213 11.8337 11.8346 9.22033 11.8346 6.00033C11.8346 2.78033 9.2213 0.166992 6.0013 0.166992ZM5.41797 10.0837V8.91699H6.58464V10.0837H5.41797ZM7.26714 6.09949L7.79214 5.56283C8.12464 5.23033 8.33464 4.76366 8.33464 4.25033C8.33464 2.96116 7.29047 1.91699 6.0013 1.91699C4.71214 1.91699 3.66797 2.96116 3.66797 4.25033H4.83464C4.83464 3.60866 5.35964 3.08366 6.0013 3.08366C6.64297 3.08366 7.16797 3.60866 7.16797 4.25033C7.16797 4.57116 7.03964 4.86283 6.8238 5.07283L6.10047 5.80783C5.68047 6.23366 5.41797 6.81699 5.41797 7.45866V7.75033H6.58464C6.58464 6.87533 6.84714 6.52533 7.26714 6.09949Z" fill="#007079"/>
</svg>
