<svg width="24" height="24" viewBox="0 0 24 24" fill="none" xmlns="http://www.w3.org/2000/svg">
<path fill-rule="evenodd" clip-rule="evenodd" d="M12 2.34473L17.66 7.99473C19.22 9.55473 20 11.6347 20 13.6347C20 15.6347 19.22 17.7447 17.66 19.3047C16.1 20.8647 14.05 21.6547 12 21.6547C9.95 21.6547 7.9 20.8647 6.34 19.3047C4.78 17.7447 4 15.6347 4 13.6347C4 11.6347 4.78 9.55473 6.34 7.99473L12 2.34473ZM7.76 9.59473C6.62 10.7247 6.01 11.9947 6 13.9947H18C17.99 11.9947 17.38 10.7647 16.24 9.64473L12 5.26473L7.76 9.59473Z" fill="#007079"/>
</svg>
