<svg width="10" height="12" viewBox="0 0 10 12" fill="none" xmlns="http://www.w3.org/2000/svg">
<path fill-rule="evenodd" clip-rule="evenodd" d="M8.75 4H8.125V2.85714C8.125 1.28 6.725 0 5 0C3.275 0 1.875 1.28 1.875 2.85714H3.125C3.125 1.90857 3.9625 1.14286 5 1.14286C6.0375 1.14286 6.875 1.90857 6.875 2.85714V4H1.25C0.5625 4 0 4.51429 0 5.14286V10.8571C0 11.4857 0.5625 12 1.25 12H8.75C9.4375 12 10 11.4857 10 10.8571V5.14286C10 4.51429 9.4375 4 8.75 4ZM1.25 10.8571V5.14286H8.75V10.8571H1.25ZM6.25 8C6.25 8.62857 5.6875 9.14286 5 9.14286C4.3125 9.14286 3.75 8.62857 3.75 8C3.75 7.37143 4.3125 6.85714 5 6.85714C5.6875 6.85714 6.25 7.37143 6.25 8Z" fill="#565656"/>
</svg>
