<svg width="10" height="12" viewBox="0 0 10 12" fill="none" xmlns="http://www.w3.org/2000/svg">
<g clip-path="url(#clip0)">
<path fill-rule="evenodd" clip-rule="evenodd" d="M8.13505 4.03581H8.70311C9.04991 4.03581 9.3825 4.16173 9.62773 4.38585C9.87295 4.60998 10.0107 4.91395 10.0107 5.23092V10.7754C10.0107 10.9323 9.9769 11.0878 9.91118 11.2328C9.84547 11.3777 9.74915 11.5095 9.62773 11.6205C9.5063 11.7314 9.36215 11.8195 9.20351 11.8795C9.04486 11.9396 8.87483 11.9705 8.70311 11.9705H1.30761C1.13589 11.9705 0.965856 11.9396 0.807209 11.8795C0.648563 11.8195 0.504413 11.7314 0.38299 11.6205C0.261567 11.5095 0.165249 11.3777 0.0995359 11.2328C0.0338223 11.0878 0 10.9323 0 10.7754H0V5.19173C0.011131 4.88161 0.153795 4.5876 0.397824 4.37189C0.641852 4.15617 0.968112 4.03565 1.30761 4.03581H1.78992C1.79557 4.02688 1.79854 4.01674 1.79854 4.00643C1.79854 3.99611 1.79557 3.98597 1.78992 3.97704V2.99745C1.77378 2.31268 2.01985 1.64426 2.48561 1.10768C2.95137 0.571102 3.60757 0.200064 4.34084 0.0586709C4.74483 -0.02035 5.16192 -0.0257368 5.5682 0.0428191C5.97448 0.111375 6.36197 0.252526 6.70846 0.458185C7.05495 0.663844 7.35363 0.929968 7.5874 1.24131C7.82116 1.55265 7.98541 1.90309 8.07074 2.27255C8.11388 2.46267 8.13543 2.65635 8.13505 2.85051V4.03581ZM4.73741 1.15581C4.28338 1.23383 3.87374 1.45504 3.57992 1.78086C3.2861 2.10669 3.12676 2.51645 3.12969 2.93867V3.91826C3.11914 3.92904 3.11331 3.94299 3.11331 3.95745C3.11331 3.9719 3.11914 3.98585 3.12969 3.99663H6.88103V2.85051C6.88103 2.39585 6.68341 1.95982 6.33166 1.63832C5.9799 1.31683 5.50282 1.13622 5.00536 1.13622L4.73741 1.15581ZM6.25938 7.95418C6.26974 8.18058 6.20644 8.4047 6.07748 8.59822C5.94852 8.79175 5.7597 8.946 5.53486 9.04148C5.31002 9.13696 5.05926 9.16938 4.81426 9.13465C4.56927 9.09992 4.34103 8.9996 4.1584 8.84636C3.97576 8.69313 3.84693 8.49385 3.78817 8.27371C3.7294 8.05358 3.74336 7.82246 3.82826 7.60957C3.91317 7.39668 4.06521 7.21157 4.26518 7.07762C4.46515 6.94368 4.70408 6.86692 4.95177 6.85704C5.28369 6.84636 5.60688 6.95545 5.85154 7.16073C6.0962 7.36601 6.2427 7.65101 6.25938 7.95418Z" fill="#000000"/>
</g>
<defs>
<clipPath id="clip0">
<rect width="10" height="12" fill="white"/>
</clipPath>
</defs>
</svg>
