<svg width="19" height="20" viewBox="0 0 19 20" fill="none" xmlns="http://www.w3.org/2000/svg">
<path fill-rule="evenodd" clip-rule="evenodd" d="M2.30225 4.51163H3.83713V2.97675H2.30225V4.51163ZM2.30225 7.5814H3.83713V6.04651H2.30225V7.5814ZM6.9069 16.7907H5.37201V15.2558H6.9069V16.7907ZM5.37201 10.6512H6.9069V9.11628H5.37201V10.6512ZM3.83713 10.6512H2.30225V9.11628H3.83713V10.6512ZM2.30225 16.7907H3.83713V15.2558H2.30225V16.7907ZM3.83713 13.7209H2.30225V12.186H3.83713V13.7209ZM5.37201 4.51163H6.9069V2.97675H5.37201V4.51163ZM16.1162 13.7209H14.5813V12.186H16.1162V13.7209ZM8.44178 16.7907H9.97666V2.97675H8.44178V16.7907ZM16.1162 16.7907H14.5813V15.2558H16.1162V16.7907ZM14.5813 10.6512H16.1162V9.11628H14.5813V10.6512ZM14.5813 4.51163V2.97675H16.1162V4.51163H14.5813ZM14.5813 7.5814H16.1162V6.04651H14.5813V7.5814ZM13.0464 4.51163H11.5115V2.97675H13.0464V4.51163ZM11.5115 16.7907H13.0464V15.2558H11.5115V16.7907ZM13.0464 10.6512H11.5115V9.11628H13.0464V10.6512Z" fill="#007079"/>
</svg>
