<svg width="18" height="18" viewBox="0 0 18 18" fill="none" xmlns="http://www.w3.org/2000/svg">
<path d="M8.97021 6.91L8.99021 11.1" stroke="#898787" stroke-width="0.5" stroke-miterlimit="10"/>
<path d="M16.66 12.14V13.31C16.66 13.6053 16.5434 13.8887 16.3355 14.0984C16.1276 14.3082 15.8453 14.4274 15.55 14.43H14.37C14.2234 14.43 14.0782 14.401 13.9429 14.3446C13.8076 14.2881 13.6848 14.2055 13.5816 14.1014C13.4784 13.9972 13.3968 13.8737 13.3416 13.7378C13.2864 13.602 13.2587 13.4566 13.26 13.31V12.14C13.2546 11.9914 13.2794 11.8432 13.3329 11.7044C13.3863 11.5656 13.4674 11.4391 13.5712 11.3326C13.6749 11.226 13.7992 11.1416 13.9365 11.0844C14.0738 11.0273 14.2213 10.9985 14.37 11H15.55C15.6983 10.9999 15.8452 11.0296 15.9818 11.0873C16.1185 11.1449 16.2422 11.2294 16.3457 11.3356C16.4492 11.4419 16.5303 11.5678 16.5843 11.706C16.6383 11.8441 16.664 11.9917 16.66 12.14Z" fill="#898787" stroke="#898787" stroke-width="0.5" stroke-miterlimit="10"/>
<path d="M10.7 12.14V13.31C10.7 13.607 10.582 13.8919 10.3719 14.1019C10.1619 14.312 9.877 14.43 9.57996 14.43H8.39996C8.10465 14.4274 7.82234 14.3082 7.61445 14.0984C7.40657 13.8887 7.28994 13.6053 7.28996 13.31V12.14C7.28595 11.9917 7.3117 11.8441 7.36568 11.706C7.41967 11.5678 7.50079 11.4419 7.60427 11.3356C7.70774 11.2294 7.83147 11.1449 7.96813 11.0873C8.1048 11.0296 8.25163 10.9999 8.39996 11H9.57996C9.72912 10.9986 9.87704 11.0273 10.0149 11.0843C10.1527 11.1414 10.2776 11.2256 10.3822 11.332C10.4867 11.4384 10.5687 11.5648 10.6233 11.7036C10.6779 11.8425 10.704 11.9909 10.7 12.14Z" fill="#898787" stroke="#898787" stroke-width="0.5" stroke-miterlimit="10"/>
<path d="M9.54977 3.57999H8.36977C7.75673 3.57999 7.25977 4.07695 7.25977 4.68999V5.88999C7.25977 6.50302 7.75673 6.99999 8.36977 6.99999H9.54977C10.1628 6.99999 10.6598 6.50302 10.6598 5.88999V4.68999C10.6598 4.07695 10.1628 3.57999 9.54977 3.57999Z" fill="#898787" stroke="#898787" stroke-width="0.5" stroke-miterlimit="10"/>
<path d="M4.73989 12.06V13.24C4.73989 13.3858 4.71118 13.5301 4.65539 13.6648C4.59961 13.7995 4.51785 13.9218 4.41478 14.0249C4.3117 14.128 4.18934 14.2097 4.05467 14.2655C3.92 14.3213 3.77566 14.35 3.62989 14.35H2.44989C2.1555 14.35 1.87317 14.2331 1.665 14.0249C1.45683 13.8167 1.33989 13.5344 1.33989 13.24V12.06C1.33857 11.9134 1.3663 11.768 1.42149 11.6322C1.47669 11.4963 1.55824 11.3728 1.66144 11.2686C1.76465 11.1645 1.88746 11.0819 2.02279 11.0254C2.15812 10.969 2.30328 10.94 2.44989 10.94H3.62989C3.7765 10.94 3.92166 10.969 4.05699 11.0254C4.19232 11.0819 4.31513 11.1645 4.41833 11.2686C4.52154 11.3728 4.60309 11.4963 4.65828 11.6322C4.71347 11.768 4.74121 11.9134 4.73989 12.06Z" fill="#898787" stroke="#898787" stroke-width="0.5" stroke-miterlimit="10"/>
<path d="M3.04004 10.84V10.9" stroke="#898787" stroke-width="0.5" stroke-miterlimit="10"/>
<path d="M14.96 11.07V8.95001H3.04004V10.84" stroke="#898787" stroke-width="0.5" stroke-miterlimit="10"/>
</svg>
