<svg width="52" height="26" viewBox="0 0 52 26" fill="none" xmlns="http://www.w3.org/2000/svg">
<path d="M0 2C0 0.89543 0.895431 0 2 0H26V26H2C0.89543 26 0 25.1046 0 24V2Z" fill="#007079"/>
<path d="M26 0H50C51.1046 0 52 0.895431 52 2V24C52 25.1046 51.1046 26 50 26H26V0Z" fill="#015359"/>
<path d="M26 0V26" stroke="#015359" stroke-width="0.5"/>
<rect x="5" y="15.6667" width="5.33333" height="5.33333" rx="1" fill="white"/>
<rect x="15.6667" y="15.6667" width="5.33333" height="5.33333" rx="1" fill="white"/>
<rect x="10.3333" y="5" width="5.33333" height="5.33333" rx="1" fill="white"/>
<path d="M13.0001 10.3333V12.8333H7.66675V17" stroke="white" stroke-linejoin="round"/>
<path d="M12.9999 10.3333V12.8333H18.3333V17" stroke="white" stroke-linejoin="round"/>
<rect x="31" y="5" width="16" height="16" rx="1" fill="white"/>
<rect x="36.8333" y="10.8333" width="7" height="7" rx="0.5" stroke="#007079"/>
<path d="M0.5 2C0.5 1.17157 1.17157 0.5 2 0.5H50C50.8284 0.5 51.5 1.17157 51.5 2V24C51.5 24.8284 50.8284 25.5 50 25.5H2C1.17157 25.5 0.5 24.8284 0.5 24V2Z" stroke="#015359"/>
</svg>
