<svg width="52" height="26" viewBox="0 0 52 26" fill="none" xmlns="http://www.w3.org/2000/svg">
<path d="M0 2C0 0.89543 0.895431 0 2 0H26V26H2C0.89543 26 0 25.1046 0 24V2Z" fill="#007079"/>
<path d="M26 0H50C51.1046 0 52 0.895431 52 2V24C52 25.1046 51.1046 26 50 26H26V0Z" fill="#007079"/>
<path d="M26 0V26" stroke="#015359" stroke-width="0.5"/>
<path d="M0.5 2C0.5 1.17157 1.17157 0.5 2 0.5H50C50.8284 0.5 51.5 1.17157 51.5 2V24C51.5 24.8284 50.8284 25.5 50 25.5H2C1.17157 25.5 0.5 24.8284 0.5 24V2Z" stroke="#015359"/>
<path d="M13.2209 10.0833C11.0126 10.0833 9.01261 10.9083 7.47095 12.25L4.47095 9.25V16.75H11.9709L8.95428 13.7333C10.1126 12.7667 11.5876 12.1667 13.2209 12.1667C16.1709 12.1667 18.6793 14.0917 19.5543 16.75L21.5293 16.1C20.3709 12.6083 17.0959 10.0833 13.2209 10.0833Z" fill="white"/>
<path d="M44.5251 12.25C42.9834 10.9083 40.9834 10.0833 38.7751 10.0833C34.9001 10.0833 31.6251 12.6083 30.4751 16.1L32.4418 16.75C33.3168 14.0917 35.8168 12.1667 38.7751 12.1667C40.4001 12.1667 41.8834 12.7667 43.0418 13.7333L40.0251 16.75H47.5251V9.25L44.5251 12.25Z" fill="white"/>
</svg>
