<svg width="18" height="18" viewBox="0 0 18 18" fill="none" xmlns="http://www.w3.org/2000/svg">
<path fill-rule="evenodd" clip-rule="evenodd" d="M3.75 2.25H12.75L15.75 5.25V14.25C15.75 15.075 15.075 15.75 14.25 15.75H3.75C2.9175 15.75 2.25 15.075 2.25 14.25V3.75C2.25 2.925 2.9175 2.25 3.75 2.25ZM14.25 14.25V5.8725L12.1275 3.75H3.75V14.25H14.25ZM9 9C7.755 9 6.75 10.005 6.75 11.25C6.75 12.495 7.755 13.5 9 13.5C10.245 13.5 11.25 12.495 11.25 11.25C11.25 10.005 10.245 9 9 9ZM11.25 4.5H4.5V7.5H11.25V4.5Z" fill="#007079"/>
</svg>
